<?xml version="1.0" standalone="no"?>
<!DOCTYPE svg PUBLIC "-//W3C//DTD SVG 1.1//EN" "http://www.w3.org/Graphics/SVG/1.1/DTD/svg11.dtd" >
<svg xmlns="http://www.w3.org/2000/svg">
<metadata>
This is a custom SVG webfont generated by Font Squirrel.
Copyright   : Created by Rob Villareal 101200
Designer    : HighLogic  Erwin Denissen
Foundry     : HighLogic
Foundry URL : httpwwwhighlogiccom
</metadata>
<defs>
<font id="webfontPFzWzLCi" horiz-adv-x="682" >
<font-face units-per-em="2048" ascent="1638" descent="-410" />
<missing-glyph horiz-adv-x="569" />
<glyph unicode=" "  horiz-adv-x="569" />
<glyph unicode="&#x09;" horiz-adv-x="569" />
<glyph unicode="&#xa0;" horiz-adv-x="569" />
<glyph unicode="!" horiz-adv-x="600" d="M1 1670v-66l6 -36q23 -43 23 -97l6 -556q29 -49 34 -98v-24q-5 -36 44 -350q-38 -97 66 -157q64 -49 99 0q77 61 57 132q76 315 43 362q38 117 16 160l17 35l29 96l5 55q-11 121 29 218l6 42l-29 67q0 42 -6 48v103q6 49 -5 90l-18 7q-110 -37 -196 17l-99 7zM163 111 q-134 -113 -17 -221l102 -2q81 25 81 115t-91 111z" />
<glyph unicode="&#x22;" horiz-adv-x="476" d="M242 1615q88 -348 220 -32l-4 112q-56 64 -168 44q-68 -44 -48 -124zM0 1614q88 -348 220 -32l-4 112q-56 64 -168 44q-68 -44 -48 -124z" />
<glyph unicode="'" horiz-adv-x="219" d="M1 1654q26 -360 200 7q51 154 -89 153q-134 5 -111 -160z" />
<glyph unicode="," horiz-adv-x="231" d="M-44 -19q26 -361 200 7q51 154 -89 153q-134 5 -111 -160z" />
<glyph unicode="-" d="M49 900l-4 -16v-136q-36 -100 -4 -180q-4 -48 12 -88q44 4 72 16h44q100 -36 188 4h76q88 -28 160 8l4 12q0 24 8 44l-4 20q12 28 12 52v12l8 40v132l-4 44q-24 8 -40 20q-64 0 -112 28q-64 -4 -112 -24h-16l-36 4l-8 4q-60 20 -112 16h-116z" />
<glyph unicode="." horiz-adv-x="410" d="M51 202q-134 -108 -17 -211l102 -2q81 24 81 110t-91 106z" />
<glyph unicode=":" horiz-adv-x="381" d="M61 1272q-134 -108 -17 -211l102 -2q81 24 81 110t-91 106zM71 368q-134 -108 -17 -211l102 -2q81 24 81 110t-91 106z" />
<glyph unicode=";" horiz-adv-x="340" d="M81 1232q-134 -108 -17 -211l102 -2q81 24 81 110t-91 106zM30 36q88 -348 200 -1q21 79 -99 91q-121 -10 -101 -90z" />
<glyph unicode="&#x37e;" horiz-adv-x="340" d="M81 1232q-134 -108 -17 -211l102 -2q81 24 81 110t-91 106zM30 36q88 -348 200 -1q21 79 -99 91q-121 -10 -101 -90z" />
<glyph unicode="?" horiz-adv-x="1140" d="M352 1727q-33 -18 -73 -24l-27 -12q-106 12 -185 -12q-53 -73 -60 -140v-110l7 -48v-128q19 -30 53 -55q185 -36 272 49l106 12q80 -30 119 -91q0 -43 -13 -73l-13 -18l-33 -37q-34 -91 -93 -140v-36q-87 -61 -106 -140l6 -42q0 -79 20 -134l-26 -61l13 -67l6 -12 q-6 -48 7 -91q113 -67 232 -49q166 49 80 250q73 115 53 237q33 42 40 91q226 194 232 444l7 42l20 37v158l-20 12q-7 12 -33 30q-40 61 -87 103l-33 7q-40 0 -73 18h-212l-67 30l-99 6zM382 -83q67 -88 160 -49.5t57 162.5q-36 109 -170 88q-67 -41 -47 -201z" />
<glyph unicode="A" horiz-adv-x="782" d="M466 1691h216l42 -48q3 -30 3 -58q0 -81 -24 -148q6 -42 5.5 -78.5t-5.5 -68.5l11 -21l16 -117q2 -23 2 -43q0 -45 -8 -78v-37l6 -10l5 -116q21 -27 32 -53l-6 -16v-148l-5 -37l-11 -10v-16q-10 -63 -10 -106q26 -52 32 -89q-27 -42 -32 -79l26 -64l-5 -15l11 -285 q-16 -11 -22 -21h-42q-31 -6 -53 -6q-39 -23 -79 -23q-13 0 -26 2q-34 60 -34 120q0 14 2 28q-10 16 -21 53l-5 31l-5 106q-43 10 -74 37h-132l-26 -27l5 -47l-5 -48q-26 -52 -26 -102q0 -20 4 -40l-31 -26l-11 -74q-54 -19 -104 -19q-33 0 -65 8l-5 32v654q38 56 38 117 q0 8 -1 15q-23 79 -23 155.5t23 150.5q-6 30 -6 58q0 70 38 127q-6 31 -6 52l-31 64l5 37q16 26 5 52l16 21q5 21 11 58l-6 80q2 20 2 38q0 33 -7 56q16 11 21 22h211q21 -22 42 -27l69 32zM343 1194q1 -9 1 -18q0 -37 -17 -68q-11 -37 -11 -69q-5 -101 -5 -138l-5 -11 q-22 -75 -27 -123q31 -30 82 -30q28 0 62 9l5 21l-5 27l-6 266q-21 27 -21 54l-5 10q4 25 4 48q0 36 -10 69l-26 6z" />
<glyph unicode="B" horiz-adv-x="954" d="M587 1793h-198q-31 -6 -58 -6t-51 6h-36q-51 -9 -96 -9t-84 9q-37 -12 -61 -36q-3 -27 -3 -53q0 -78 27 -145l6 -18q-12 -49 -12 -91l19 -84l-13 -36l-6 -24v-42q19 -49 19 -95q0 -29 -7 -56l13 -48l6 -72q-12 -48 -12 -90l12 -67q-1 -17 -1 -33q0 -64 19 -117 q-1 -17 -1 -34q0 -83 25 -159l-12 -66l6 -12l30 -96q-6 -42 -18 -66v-18l12 -30q18 -43 24 -73q-11 -36 -11 -70q0 -22 5 -44q12 -12 42 -18l78 24h60q42 0 73 12q24 3 46.5 3t43.5 -3h54q82 31 160 31q13 0 26 -1l13 12q42 42 60 72l6 49l48 144l-6 66v42q0 24 -6 67 q12 60 12 108q-60 78 -60 168q24 30 48 48q18 55 48 91v126q46 129 46 248q0 176 -100 330q-18 90 -84 138l-37 6l-78 18h-12zM566 1173q-17 -37 -17 -71q0 -28 11 -55q-30 -30 -42 -60q-34 -16 -58 -16q-56 0 -56 88q-9 35 -9 65q0 96 87 150q78 -30 84 -101zM542 479 q2 -16 2 -30q0 -103 -116 -108q-67 4 -67 69q0 35 19 87q-1 10 -1 19q0 89 103 94q72 -26 72 -81q0 -22 -12 -50z" />
<glyph unicode="C" horiz-adv-x="770" d="M25 1600q-5 -35 -25 -65l5 -201l5 -15l-10 -40l5 -421l20 -65q0 -25 5 -41v-35q0 -65 25 -115l5 -35v-291q96 -196 271 -276h201l35 5l40 15q50 5 85 20q35 65 40 121l-20 35q5 38 5 71.5t-5 63.5l-25 20h-165q-20 -25 -45 -40q-27 7 -52 7q-12 0 -24 -2q-30 30 -40 60 l-25 35l-40 71q-10 40 -35 70v55q-2 28 -2 55q0 106 32 191q-3 34 -3 67q0 198 103 339q81 0 141 30q90 0 150 30l5 25l-5 146l5 55q13 40 13 80q0 21 -3 41l5 30l-25 70q-40 0 -65 25l-20 5l-256 5q-216 -30 -311 -201z" />
<glyph unicode="D" horiz-adv-x="818" d="M-5 1806l5 -56v-15q26 -51 31 -96v-102l5 -20v-162l5 -31v-40l15 -102l-5 -35q-2 -20 -2 -39q0 -27 4.5 -50t4.5 -45q0 -15 -2 -29l5 -40v-462q0 -40 5 -71v-15q7 -37 7 -65q0 -14 -2 -26v-122l5 -35q-2 -17 -2 -33q0 -32 7 -59l26 -10l71 26h319q51 40 96 55l41 61l5 46 l25 51l5 71q33 89 33 173q0 20 -2 40l30 91q5 66 25 106l11 117l5 25l5 36v71q16 49 16 87q0 10 -1 19v432q-30 55 -30 111l-21 25q-50 36 -86 87q-46 5 -71 30h-46q-30 0 -55 10h-41q-40 15 -76 21q-57 -33 -114 -33l-28 2q-73 33 -140 33q-16 0 -32 -2l-36 10 q-20 -21 -20 -41zM466 1230q54 -68 58 -147l-4 -54l-5 -14l-5 -74q-7 -49 -7 -87q0 -19 2 -35l-10 -20q-15 -39 -20 -64v-78l-4 -15q-20 -54 -25 -132l-5 -54l-10 -34l-9 -79v-29q-5 -59 -5 -98q-40 -35 -79 -44q-24 34 -29 73l5 20l5 39l4 34q-1 17 -1 31q0 33 6 57v422 l15 54v88l5 10l5 34l5 54q-10 64 -25 108q5 24 20 34h113z" />
<glyph unicode="E" horiz-adv-x="799" d="M596 1710h-199q-31 -6 -58 -6t-51 6h-36q-51 -9 -96.5 -9t-84.5 9q-36 -12 -60 -36q-3 -27 -3 -53q0 -79 27 -146l6 -18q-12 -48 -12 -91l18 -84l-12 -36l-6 -24v-43q19 -49 19 -95q0 -28 -7 -55l12 -49l6 -72q-12 -48 -12 -91l12 -66q-1 -17 -1 -33q0 -64 19 -118 q-1 -17 -1 -34q0 -83 25 -159l-12 -66l6 -12l30 -97q-6 -42 -18 -66v-18l12 -30q18 -43 24 -73q-11 -36 -11 -70q0 -22 5 -44l43 -18l78 24h66l133 18q32 -8 62 -8q15 0 29 2q70 33 137 33q19 0 38 -3q36 18 60 42q11 43 11 82q0 50 -17 93q0 30 3 57.5t-15 51.5h-36 q-51 -11 -95 -11q-30 0 -56 5q-67 -25 -91 -25q-66 25 -96 73q6 102 60 169q54 12 97 30q126 12 217 78v18q-13 55 -13 99q0 15 1 28q6 23 6 42q0 70 -84 70q-31 0 -73 -9q-61 21 -115 21q-21 0 -42 -3q-44 79 -44 158q0 17 2 35q24 72 72 108q36 6 61 6l48 -6 q108 31 181 37l12 18v36l6 48l6 42l-6 67l6 139l-60 108q-55 24 -97 30h-12z" />
<glyph unicode="F" horiz-adv-x="820" d="M591 1798h-199q-30 -6 -57 -6t-51 6h-37q-51 -9 -96 -9t-85 9q-36 -12 -60 -36q-3 -27 -3 -53q0 -79 27 -146l6 -18q-12 -49 -12 -91l18 -84l-12 -37l-6 -24v-42q19 -49 19 -96q0 -28 -7 -55l12 -48l6 -72q-12 -49 -12 -91l12 -66q-1 -17 -1 -33q0 -65 19 -118 q-1 -17 -1 -33q0 -85 26 -160l-13 -67l7 -12l30 -96q-6 -42 -18 -67v-18l12 -30q18 -42 24 -72q-11 -37 -11 -71q0 -22 5 -44l42 -18l54 18l24 6q91 0 151 12l12 61q-6 48 -30 84v103q6 42 18 72q-11 45 -11 88q0 75 35 141l18 18q55 12 97 31q127 12 217 78v42 q-12 48 -12 92t12 83q-18 24 -36 36l-121 -6q-60 21 -117 21q-23 0 -46 -3q-44 79 -44 159q0 17 2 35q24 72 73 108q36 6 60 6l48 -6q109 30 181 36q24 81 24 156q0 38 -6 74q4 27 4 52q0 120 -94 195l-24 6l-49 6z" />
<glyph unicode="G" horiz-adv-x="790" d="M277 1800l-56 -30l-30 -5q-25 -25 -40 -35q-55 -21 -91 -61q-5 -40 -35 -65q-5 -35 -25 -55v-111q-1 -19 -1 -36q0 -52 11 -90l-10 -40v-337l5 -20q0 -60 25 -166v-85l25 -56v-15l5 -25v-291q96 -197 272 -277h85q20 -1 39 -1q77 0 137 16q81 55 121 136v70l5 20v86l5 15 l-5 256l5 56l5 15l5 55l5 40v71l-5 20l5 15q0 30 -10 55q10 25 5 45l-20 15h-251q-36 -27 -74 -27q-11 0 -22 2l-10 -15q2 -20 2.5 -37.5t-2.5 -32.5v-55l5 -16l5 -160q65 -10 111 -41l5 -15v-50q5 -25 0 -55q2 -17 2 -33q0 -31 -7 -58q-20 -25 -41 -40l-55 5 q-70 75 -95 166l-26 30v151q0 25 5 40q6 76 26 126q-3 33 -3 65q0 189 103 327q81 0 141 30q90 0 151 30l5 25l-5 146l5 56q13 40 13 80q0 20 -3 40l5 30l-25 71q-40 0 -66 25l-20 5l-256 5q-30 -10 -60 -5z" />
<glyph unicode="H" horiz-adv-x="919" d="M13 1756v-16q0 -43 -13 -75l3 -9l28 -60v-69q10 -28 13 -50v-13q-6 -28 -13 -44v-57q-3 -22 -9 -34v-82l6 -28q29 -41 32 -82l-3 -34l3 -63q-7 -37 -7 -71q0 -95 51 -174l-3 -10q-13 -40 -32 -66q-1 -15 -1 -29q0 -82 29 -147l-6 -22q-3 -20 -3 -39q0 -46 16 -86 q0 -13 3 -32q9 -25 12 -47l-3 -6l-6 -19l3 -22q0 -19 -9 -31l-3 -19q0 -28 -4 -50l7 -16l6 -94q17 -51 84 -51q33 0 79 13v9q10 48 10 79q6 22 15 35q0 40 -6 65l3 35v75l-3 19l-19 44v51q7 18 16 28q6 38 22 63l-3 18l3 26q4 27 4 47q0 10 -1 19q13 9 25 12h54l22 10h12 l22 3q35 -3 57 0q31 -13 47 -38l6 -19v-22q6 -28 6 -50v-13q5 -28 5 -51q0 -9 -1 -18l9 -19q6 -22 19 -40l3 -13q3 -16 13 -31l15 -48q-3 -15 0 -28q-10 -48 -10 -90q0 -35 7 -67l3 -34q-3 -29 -9 -51q16 -15 28 -22q25 0 41 3h9q36 -8 65 -8q14 0 27 2q9 54 31 85 q5 33 5 63q0 44 -11 81l3 51l6 19l19 37q0 32 -16 51l-6 15v29l3 9v41l-6 22l-3 22v37q-10 16 -10 32v38q7 34 19 56v94l-12 70q0 28 12 50v66l3 6l7 22l-4 110l4 6q9 29 12 76q0 18 6 40v29l4 9l-4 104l10 38q-1 23 -1 43t1 35q34 60 37 116v10q-9 19 -9 34q-6 32 -16 51 l-3 50q-52 32 -105 32q-30 0 -61 -10q-33 14 -62 14q-56 0 -95 -52l6 -53q-5 -32 -5 -63q0 -86 39 -157q0 -25 -15 -44q-7 -32 -22 -57q0 -31 9 -53q0 -13 3 -35l-3 -28q-6 -9 -12 -31l-4 -22l-3 -19l3 -38q19 -43 19 -83q0 -28 -9 -55q-16 -13 -28 -19l-22 9q-38 0 -66 13 h-10q-50 -25 -94 -25l-3 9v88q9 29 6 51v9q6 19 6 38q17 50 17.5 97.5t-17.5 93.5v41q19 44 19 82q18 42 18 82q0 27 -8 53v34q19 41 19 79q0 18 -4 35l-22 18l-9 4q-47 0 -85 12q-31 0 -53 -6l-13 -3q-25 0 -66 3q-30 10 -58 10q-7 0 -14 -1q-31 -31 -53 -47z" />
<glyph unicode="I" horiz-adv-x="480" d="M-5 1739q0 -75 27 -133l5 -520q26 -64 32 -117l-6 -21v-32l6 -16l5 -282l5 -32v-26q8 -25 8 -49q0 -10 -2 -20l10 -159q-2 -27 -2.5 -49.5t2.5 -41.5q-1 -19 -1 -37q0 -57 12 -106h159q14 -2 28 -2q27 0 52 7l5 11v180l32 117v53q-2 40 -2 73t2 60v197q0 15 5 21v90 l-5 21v43q2 39 2 72.5t-2 60.5q5 37 16 63v16l5 27l11 37v133q26 69 32 116q-36 88 -36 173q0 28 4 56l-11 42q-44 -13 -84 -13q-59 0 -107 29l-90 6z" />
<glyph unicode="J" horiz-adv-x="679" d="M237 1762l5 -89q20 -30 20 -64v-356q-1 -11 -1 -22q0 -75 31 -127v-34l5 -20l-5 -25v-34l5 -15v-213l4 -14v-30q5 -20 10 -64v-79l5 -40l5 -54v-64q-11 -34 -11 -65q0 -10 1 -20q-34 -9 -59 5l-10 20l-5 94q-60 28 -110 28q-66 0 -117 -48q-11 -48 -11 -93q0 -74 31 -139 v-74q109 -125 251 -125q32 0 65 6q119 5 183 84q18 56 18 106q0 19 -3 38l14 24v149l15 59q16 49 16 97q0 28 -6 56l5 35v237l5 20v24l-5 65v54q3 37 2.5 68t-2.5 56l15 49v15l15 64v139q20 29 29 59v15q-9 44 -24 74v15l-5 24l-5 149l-15 5q-38 -12 -73 -12q-51 0 -95 26 l-84 5z" />
<glyph unicode="K" horiz-adv-x="1100" d="M109 1792q-24 -8 -40 -20q-41 -4 -69 -25v-60l8 -16v-13l20 -68l4 -550q29 -49 33 -93q0 -33 -4 -57l4 -283l8 -25v-28l4 -8q-1 -13 -1 -26q0 -25 5 -47v-44q-1 -12 -1 -24q0 -46 13 -81v-85q0 -33 -8 -61q8 -20 8 -36q-1 -21 -1 -41q0 -58 9 -101l243 4l8 16l-4 12v166 q32 98 32 192q0 34 -4 67l4 45q29 -21 45 -41q44 -12 44 -57l8 -8l21 -24q121 -101 141 -234q41 -49 57 -102q58 -22 112 -22q36 0 70 10q32 -13 62 -13q8 0 15 1q28 36 28 75v10l-8 16q-45 49 -61 97q-20 21 -28 33q-28 77 -81 125l-4 8l-8 24q-20 41 -20 73 q-33 81 -77 126v52l-8 4q-4 25 -17 41q-44 60 -52 121l4 20q61 35 61 94v7l40 37l8 12l32 69q17 24 21 44q4 12 8 16q12 25 16 45q12 57 28 93l8 4q29 61 73 97q-1 10 -1 20q0 29 9 53l4 12q33 24 49 44l12 9q16 56 61 93q12 40 12 77q0 23 -4 44l-8 4l-41 53h-64 q-43 -14 -81 -14q-8 0 -17 1q-24 0 -44 9l-8 4q-29 1 -54 1q-74 0 -108 -9q-20 -37 -44 -57l-13 -57l-4 -28v-24l-8 -4q0 -17 -4 -41l-4 -32l-4 -29l-20 -24q-8 -32 -4 -60q-8 -57 -37 -93q1 -15 1 -29q0 -46 -13 -81q-28 -56 -68 -73q-13 13 -17 29l17 73v157q32 45 32 97 q0 9 -4 29q-20 32 -20 64l-8 21l-4 178l-17 4l-28 -12h-117l-41 28h-40q-18 9 -34 9q-6 0 -11 -1z" />
<glyph unicode="L" horiz-adv-x="721" d="M10 1794l6 -59l6 -29l6 -29v-59l5 -12l12 -64v-112q6 -23 6 -58q3 -26 3 -50t-3 -44q21 -68 21 -130q0 -23 -3 -46l6 -18q23 -35 29 -65l-29 -93l23 -77l-6 -35v-53l6 -41v-123q6 -35 18 -59v-158l6 -18l5 -29v-94l6 -65l6 -17q-3 -35 -3 -65t3 -53q29 -23 59 -29l76 6 l24 6h135q47 6 76 17l123 -6q47 6 76 24v182q0 47 -17 82q18 33 18 65q0 9 -1 17l-35 24q-13 -1 -26 -1q-124 0 -214 54l-6 23l6 12q-6 23 -12 58q-12 30 -12 53l-12 35q6 42 6 78.5t-6 68.5q6 18 6 47q8 43 8 79q0 17 -2 33q21 57 21 105v12q-1 18 -1 34q0 33 4 60v117 l-6 12l6 211q7 42 7 74q0 18 -2 32v18q16 55 16 104q0 25 -4 48l-59 18h-358z" />
<glyph unicode="M" horiz-adv-x="1389" d="M1199 1835l-28 -12l-61 -25h-146q-30 2 -55 2t-46 -2q-40 -12 -65 -24q-24 -53 -24 -97q12 -41 16 -69l-20 -73v-166q-4 -44 -4 -73q-16 -28 -24 -72q0 -17 -4 -41l-4 -24l-4 -29l-4 -28v-89q-19 -58 -19 -110q0 -16 2 -32q-12 -40 -12 -73q-16 -28 -48 -36l-25 28l-4 77 l-4 45l-4 12l-8 89l-4 28l-4 29v89q-20 36 -28 60v21l4 12l4 20l4 20l8 114l-4 20q-20 36 -24 69l-4 24q-3 18 -2.5 34.5t2.5 30.5l-5 97q-1 11 -1 21q0 45 14 84l-13 37l-24 8l-24 -4l-28 -12l-29 -4l-28 -5l-45 -4q-40 10 -71 10q-9 0 -18 -1q-70 18 -136 18t-127 -18 l-16 -29v-24l12 -32l4 -77l-4 -45l4 -36q0 -61 8 -85v-98q16 -48 21 -85v-44l-5 -32v-37l-4 -8v-77l9 -44l4 -29v-56q14 -44 14 -76v-7q-2 -35 -14 -59q-4 -45 -4 -69v-247l4 -32l4 -29l4 -20v-89l4 -16v-37l4 -28v-85q20 -36 24 -61v-12q-2 -22 -2 -41t2 -36l8 -4l28 -4 q34 -3 64 -3q44 0 78 7q16 16 24 33v20l9 65v194q0 12 -4 16v12l4 33v85l-17 60q0 25 8 41q17 44 17 81v12l8 49v117q-1 15 -1 29q0 42 9 72q40 -28 57 -65l20 -64l4 -106l20 -36q8 -24 8 -45l4 -12q8 -24 8 -44v-12q8 -49 8 -81l4 -8l17 -49l4 -77l24 -65q0 -12 4 -16 l4 -36q8 -49 8 -81l4 -8l4 -33q11 -37 11 -72q0 -17 -3 -33l17 -12h32l12 4q53 16 93 20h12q33 0 53 4q12 -1 23 -1q34 0 58 9q21 45 21 86q0 37 -17 72q0 53 -12 89q12 45 32 77l4 12q4 57 16 93v45l29 154q0 24 4 60l20 69q0 49 8 81q16 20 28 29q13 -9 17 -21l4 -137 q0 -49 16 -89l4 -29l4 -44l8 -93q0 -37 -4 -97l4 -9v-24l4 -12l4 -36q0 -65 4 -89v-41q4 -49 4 -88t-4 -70l12 -24l45 -4l194 4l8 8l-16 57l4 24q16 44 20 81v198q-4 16 -8 41q10 52 10 98q0 56 -14 104l4 24l8 146q0 33 -4 53v125q0 33 4 57v57l-4 12l4 158l9 32v12l8 49 l4 12l-4 121q34 86 34 166q0 33 -6 65q16 40 16 75q0 25 -8 47h-4l-28 12h-17l-8 4h-24l-24 8l-37 4z" />
<glyph unicode="N" horiz-adv-x="1006" d="M842 1784q-37 5 -72 5q-71 0 -135 -21l6 -69l5 -31q5 -59 21 -96q0 -79 11 -111q-1 -15 -1 -30q0 -67 22 -123v-524q-13 -49 -23 -49q-11 0 -20 64l-26 75q-5 63 -16 105q-21 48 -21 90q-5 186 -64 307v154q-27 64 -27 120q0 9 1 18l-37 10h-90l-58 -5l-191 5l-11 -5 q-68 -27 -116 -32q26 -47 32 -85v-270q26 -52 32 -100q-3 -28 -3 -54q0 -90 29 -163l-26 -48v-280q26 -43 31 -80q-5 -26 -16 -42v-32q6 -21 11 -69v-122l5 -58v-143q0 -47 -5 -84l11 -11h121q12 -3 23 -3q61 0 61 87q0 22 -4 48q-16 27 -21 48q10 42 26 74l5 508l22 16 l10 -10q0 -37 11 -96q27 -54 27 -109q0 -9 -1 -18q0 -16 5 -21q23 -45 23 -85q0 -8 -1 -15q26 -38 37 -64l5 -58l16 -37v-32l5 -11q0 -68 16 -111l16 -10l58 -6l106 6q13 2 26 2q28 0 53 -8q17 -1 34 -1q69 0 125 17l16 43v116q5 21 5 53q8 37 8 71.5t-8 66.5l-10 42l5 37 v69l5 16l11 169l-5 16l5 16v185l5 37l6 318l5 58l11 58v16l10 58v191q-26 32 -63 48l-16 5z" />
<glyph unicode="O" horiz-adv-x="829" d="M308 1717q-25 3 -49 3q-138 0 -234 -83q1 -12 1 -24q0 -92 -41 -157v-34l-5 -17q4 -27 4 -51q0 -37 -10 -68v-51q15 -63 15 -119q0 -30 -4 -57v-34l6 -17v-147l28 -63l6 -221q11 -28 23 -45q0 -119 11 -159v-74l-6 -17l6 -119q45 -39 62 -90l12 -17q90 -29 141 -91 l29 -17l249 6q29 28 57 45l79 108q23 68 51 107v23q-4 27 -4 52q0 38 10 73v17l-17 91q15 48 15 94q0 24 -4 47q24 42 24 81q0 8 -1 16q-6 68 -23 119q6 34 23 56l6 40q-4 20 -4 39q0 46 21 86v39q-12 46 -12 80v17q2 19 2 37q0 52 -13 93v40q6 38 6 74q0 71 -23 136 q0 45 -11 73l-34 29q-29 22 -46 45h-79q-76 38 -156 38q-27 0 -54 -4q-34 -23 -57 -28zM437 1189q17 -46 23 -85v-97q0 -45 22 -119l-11 -79q10 -45 10 -87q0 -53 -16 -100q19 -53 19 -102q0 -41 -13 -80q11 -51 11 -90q-28 -46 -56 -68q-40 5 -57 34q-6 79 -28 130 q-2 20 -2 38q0 33 7 59q-5 34 -5 56v40q-8 45 -8 80q0 18 2 33l-23 51v136q-2 14 -2 28q0 30 8 57q0 40 -6 68q-5 23 -5.5 44t5.5 41q29 35 63 46q39 -6 62 -34z" />
<glyph unicode="P" horiz-adv-x="970" d="M588 1807h-198q-30 -6 -57 -6t-51 6h-36q-51 -9 -96 -9t-84 9q-36 -12 -60 -36q-3 -27 -3 -53q0 -78 27 -145q-4 -34 -4 -65q0 -63 16 -115l-18 -78q6 -66 24 -114l-12 -66l6 -30q12 -54 12 -96q-14 -41 -14 -74q0 -11 2 -22l6 -18l6 -36v-60q16 -68 16 -123 q0 -27 -4 -51q24 -64 24 -123q0 -29 -6 -57l6 -12l30 -96q-9 -37 -9 -72q0 -61 27 -114q-10 -29 -10 -56q0 -40 22 -76q38 -14 71 -14q40 0 73 20q10 -1 19 -1q50 0 50 46q0 12 -3 27l12 162l12 24l-6 18q-12 30 -12 72l6 30l12 186q48 36 96 36q59 44 122 44q14 0 28 -2 l72 30l24 24l42 78q18 24 60 54q12 60 48 96v126q46 129 46 247q0 175 -100 329q-18 90 -84 138l-36 6l-78 18h-12zM546 1261q15 -54 15 -101q0 -125 -105 -199q-67 17 -67 74q0 25 13 58q-3 21 -3 40q0 108 87 164q36 -12 60 -36z" />
<glyph unicode="Q" horiz-adv-x="852" d="M334 1778q-25 3 -49 3q-138 0 -234 -83v-34l-6 -11q0 -51 -5 -91q-23 -34 -29 -56l-11 -216l11 -22q3 -28 3 -52.5t-3 -44.5v-79l6 -17v-170l28 -22v-80l6 -39v-102q0 -34 17 -57q6 -34 6 -57q0 -45 5 -107q8 -23 8 -45q0 -12 -2 -23l-6 -17l6 -131q45 -39 62 -90l12 -17 q90 -29 141 -91l29 -17l249 6l11 11l23 34q57 -60 116 -60q46 0 93 37q14 22 14 46q0 65 -98 147l-6 34q33 87 33 169q0 47 -11 92q16 49 16 94q0 22 -4 42q23 60 23 116t-23 110q30 88 30 163q0 21 -2 41q17 37 17 73.5t-17 73.5q4 31 4 59q0 43 -10 77v46q6 38 6 73 q0 70 -23 131l-5 62l-6 11l-34 29q-28 22 -45 45q-10 -1 -20 -1q-67 0 -122 35h-147q-34 -23 -57 -28zM431 1251q33 -83 33 -180q0 -36 -5 -75q17 -50 17 -97q0 -28 -6 -56q10 -41 10 -78q0 -46 -15 -86v-17q22 -46 22 -85q-96 -6 -130 -85q6 -85 45 -142l-17 -17 q-45 51 -62 102q-2 21 -2 39q0 36 8 63q-5 40 -5 75q0 49 10 89v91q-5 34 -22 57v215l5 22q-10 47 -10 88q0 28 5 54q28 34 62 45q34 -5 57 -22z" />
<glyph unicode="R" horiz-adv-x="940" d="M585 1790h-197q-30 -6 -57 -6t-51 6h-35q-51 -9 -96 -9t-83 9q-36 -12 -60 -36q-3 -35 -3 -65t3 -54q12 -60 30 -96q-8 -38 -8 -74q0 -48 14 -93q-14 -46 -14 -90q0 -52 20 -101q-6 -26 -6 -50t6 -45q12 -30 24 -48q8 -24 8 -45q0 -10 -2 -20l-6 -48q-19 -58 -19 -103 q0 -11 1 -22v-42q6 -18 12 -48l6 -42q-3 -21 -3 -42q0 -59 26 -113l-11 -71q6 -42 23 -66v-24q0 -36 6 -60q-6 -34 -6 -65q0 -64 24 -120q-3 -20 -3 -39.5t3 -37.5q60 -27 117 -27t110 27v101l6 18q-1 14 -1 28q0 55 19 97l-6 18q-12 30 -12 54v36l6 48v95l24 24 q30 -6 48 -18q0 -48 8.5 -80.5t20.5 -50.5v-18q36 -78 36 -137l24 -24v-54l6 -36q24 -47 24 -89q48 -12 71 -24h18l42 6h131l6 48l-6 35l-47 60l-6 42q-6 42 -18 65q0 66 -30 108v167q-36 66 -48 119l18 18l30 24q36 90 101 131v36q52 66 52 142q0 21 -4 43q45 127 45 245 q0 181 -105 340q-5 42 -17 71l-18 18l-54 42q-36 0 -60 12l-53 6zM531 1253q5 -56 5 -102q0 -197 -92 -197q-17 0 -38 7q0 35 -12 59q3 45 3 82.5t-3 66.5q30 78 89 114q30 -6 48 -30z" />
<glyph unicode="S" horiz-adv-x="835" d="M80 1693l-20 -20l-12 -15q-13 -13 -18 -25q-12 -15 -17 -25l-8 -18l-5 -27q0 -20 3 -35q-2 -14 -2 -28q0 -36 12 -65q-5 -22 -13 -40l3 -185q0 -25 5 -43v-7q-1 -14 -1 -26q0 -34 6 -59v-20q0 -8 2 -10v-25l8 -55q0 -28 -8 -48v-23l8 -27v-8q0 -15 2 -25l3 -15 q0 -60 5 -80q12 -25 15 -45l12 -30l8 -27q7 -18 10 -30l12 -15l53 -48l10 -8l32 -25q33 -2 58 8l5 -5l35 -25h7q15 0 25 -3l33 -12l17 -3q13 -7 23 -10q28 -15 48 -20q20 -20 30 -35l2 -27q12 -37 12 -72q0 -38 -14 -73v-23q-25 -25 -45 -35l-10 -2l-28 -3l-23 -12 q-15 0 -27 -8h-10q-37 0 -65 -20l-13 -3l-80 -2q-10 -10 -12 -20v-30q-3 -10 0 -28l2 -17l3 -18q0 -37 5 -62v-15l2 -20l3 -40l7 -13l5 -2l15 -3l5 3q43 0 60 5q20 -4 39 -4q33 0 61 11q10 -1 19 -1q37 0 67 16h32l5 -2h48l7 2q55 0 98 15l42 3q25 22 48 27q32 30 42 68l5 5 l8 20l12 27l3 5l5 116q5 22 3 42q-1 23 -1 39q0 29 3 41q3 15 3 35l-3 20l-2 48q5 29 5 50v12l-3 15l-8 15l-2 18l-13 32l-5 23l-17 18l-13 12q-15 13 -27 20l-5 5l-10 5l-18 13l-5 2l-20 15h-7l-15 3l-23 7q-35 5 -60 18q-110 17 -180 92q-38 25 -58 58l-2 7q0 18 -3 20v35 l-2 18v45q32 108 130 120q43 22 84 22q23 0 46 -7h30q43 8 68 33l15 5q27 -15 50 -3l2 5l3 15q2 23 7 38l5 67l-2 13v88q-3 15 0 27l2 58q-10 20 -17 30q2 27 15 47q5 18 2 33v42q0 20 3 33v27l2 5l3 58q-5 32 -20 53q-10 2 -25 10q-25 7 -45 5q-30 10 -58 7l-20 8l-17 10 l-10 2q-20 5 -30 5q-15 10 -33 13h-32l-23 7l-22 3q-18 0 -20 2h-128q-135 -35 -198 -145z" />
<glyph unicode="T" horiz-adv-x="810" d="M41 1780l-8 -41v-13l-17 -45l-8 -73q2 -22 2 -48t-2 -55q4 -37 4 -70q0 -55 -12 -101q0 -41 16 -70l37 -4q23 4 44 4q42 0 75 -16v-26q0 -118 33 -199l4 -25v-41l-4 -24q0 -33 -5 -58v-122l5 -33l8 -33l-4 -24v-103q8 -24 8 -45l-4 -28l4 -29l4 -118l4 -17l8 -147l4 -12 v-25q0 -33 4 -53q-3 -15 -3 -28q0 -21 7 -38l21 -20q19 -1 38 -1q104 0 187 38q7 29 7 57q0 19 -3 37l8 33q8 24 8 49l-20 37l-4 16q4 29 12 45l4 65l4 21v151q0 33 -4 57v156q26 49 26 95q0 27 -9 52l4 29l24 61l4 29q0 24 4 41q-2 59 -2 97.5t2 57.5q17 12 29 17 q19 -2 36 -2q123 0 148 108l4 98q-8 33 0 61q-14 67 -14 129t14 117v41q-16 12 -45 12l-28 -4q-25 0 -41 -4l-94 -4q-17 -1 -32 -1q-46 0 -83 9l-20 4q-41 -12 -72 -14t-35 2q-24 0 -41 -4q-32 0 -82 4l-12 4h-37q-49 0 -81 8q-21 -12 -29 -24z" />
<glyph unicode="U" horiz-adv-x="900" d="M29 1630v-29q-4 -50 -4 -83l4 -45v-116q0 -37 -4 -66q-25 -42 -25 -79l12 -50l42 -86q-17 -38 -21 -67v-62q-4 -24 0 -53v-25q0 -37 -4 -66l4 -13l8 -231l-8 -66v-21q8 -33 12 -75v-78q9 -25 5 -50l4 -20q4 -34 16 -54v-33l4 -13q0 -41 9 -70q37 -116 140 -157 q70 -65 152 -65q54 0 113 28q207 20 273 239q0 17 4 46q0 37 8 66v99l4 46q9 29 9 54q8 37 8 66v16q0 42 -8 71l8 215l8 24l4 67l21 49l4 33l4 33l4 29l5 29v29q8 46 8 75l-4 16v25l-4 12v75q0 16 -5 41q-5 31 -5 68q0 19 1 40q8 59 8 104q0 32 -4 57q-68 18 -131 18 q-56 0 -108 -14l-71 4l-24 -20l-5 -17l5 -29v-74q7 -47 7 -89q0 -57 -12 -106q0 -20 6.5 -34.5t10.5 -43.5q-12 -62 -12 -104v-82l4 -13v-37q9 -37 9 -68q0 -10 -1 -19v-132l-12 -70v-71l4 -37l-4 -21q0 -41 -5 -70q-4 -19 -4 -36t4 -34v-33l-12 -104q-12 -91 -91 -91 q-37 33 -45 79l-5 25q0 20 -4 33l-4 25v45q-4 17 -4 46q5 30 5 66q0 18 -1 37l-33 70v13q5 33 5 71q0 19 -1 40q0 71 8 100v128l-4 16l4 83q9 50 9 83l-4 20v58l-5 33l-4 29q6 27 6 50q0 13 -2 25l5 12l8 58v13l4 45v12l12 83l-8 33q-53 17 -102 17q-24 0 -47 -4 q-66 29 -128 29q-21 -9 -33 -25z" />
<glyph unicode="V" horiz-adv-x="969" d="M44 1800q-28 -4 -44 -16v-64q16 -24 16 -48q0 -32 4 -56v-124l12 -64q61 -107 61 -221q0 -14 -1 -27q40 -95 40 -187v-17q44 -60 60 -104l4 -44v-76q-4 -26 -4 -49t4 -43l16 -56q28 -40 36 -80v-44q4 -16 8 -44l4 -28v-72q36 -76 44 -104v-32l4 -12q-1 -10 -1 -20 q0 -28 9 -52l4 -12q-1 -12 -1 -23q0 -34 9 -61l28 -16l72 -4l12 4h68q18 4 34 4t30 -4q48 12 76 28l8 12q8 56 28 96v64q-12 32 -4 56v12q36 44 40 92l-8 156q26 77 26 141q0 16 -2 31l8 8l4 16l4 32q0 60 8 100q36 36 44 80v44q0 12 4 16v28q-5 40 -5 71q0 16 1 29 q49 107 49 209q0 32 -5 63q36 44 44 84l-4 164l16 28q8 32 24 56l8 56q-24 20 -52 20q-48 -18 -92 -18t-84 18q-20 1 -38 1q-35 0 -62 -5q-7 -26 -7 -50q0 -16 3 -30q-9 -33 -9 -63q0 -36 13 -69q-20 -48 -20 -88v-88q0 -60 -4 -100q4 -12 0 -24q-16 -28 -24 -72l-4 -40 l-4 -20l-4 -28l-4 -40v-84q-18 -57 -18 -107q0 -17 2 -33q-12 -40 -12 -72q-12 -24 -32 -36q-44 16 -44 60v24l-4 44l-4 32q0 24 -4 40l-4 28q0 24 -4 40v28q-5 32 -5 57q0 12 1 23v12q-24 44 -28 84l8 28l4 20l4 24v36l4 24l-4 44q-8 28 -20 48l-4 20l-8 72l4 20v48l-4 8 v112l12 24q0 44 -36 56q-83 -25 -163 -25q-72 0 -141 21z" />
<glyph unicode="W" horiz-adv-x="1540" d="M1189 1700l-12 -27v-36q12 -40 16 -67l-16 -44l-4 -36v-107q-2 -29 -2 -54t2 -45l-23 -55v-16q-8 -36 -8 -63l-4 -20l-4 -16v-28l-4 -8q1 -18 1 -35q0 -32 -5 -56v-12q-32 -71 -32 -139v-15l-24 -28l-4 12q-12 23 -12 39q-31 64 -39 115l-4 12l4 44v91l-4 20 q-24 31 -28 95l8 12l4 146l-4 8q-28 76 -32 135l4 16v28q-4 47 -4 85.5t4 68.5q-8 36 -32 48h-23q-35 -11 -67 -11q-16 0 -32 3q-21 -5 -40 -5q-27 0 -52 9h-11q-44 -12 -80 -12q-16 -20 -27 -28q-9 -39 -9 -74q0 -40 12 -76v-12q-15 -36 -19 -64v-138q-2 -24 -2 -44t2 -36 q-12 -31 -24 -51q-8 -91 -36 -155v-67l12 -36q-12 -24 -12 -43v-72l-8 -32q0 -27 -4 -47q-12 -24 -31 -36q-32 8 -44 60l-12 146l-8 52v24l-4 16q1 20 1 37q0 35 -5 62l-20 35l-4 28l4 32q8 24 8 43q21 61 21 118q0 51 -17 100v12q0 32 4 56v103l-4 12l-4 23l-4 28l-4 24 q-19 28 -43 36q-40 -8 -64 -20q-47 0 -79 -8l-28 4l-31 4h-40q-44 16 -79 16q-16 -12 -24 -28q0 -48 16 -87q0 -32 4 -56l4 -150l4 -28l4 -24q60 -103 60 -212q0 -13 -1 -26l8 -23q12 -16 12 -32l12 -28l4 -32l4 -79q12 -40 35 -63v-24l16 -60v-11q4 -32 12 -48 q-4 -83 -4 -111l16 -44q4 -23 16 -39l4 -218l4 -24l16 -36v-12q0 -23 8 -59q4 -16 4 -28t8 -39q0 -32 8 -52q0 -44 11 -79q40 -20 68 -28l59 -4l87 4l28 4q12 -1 23 -1q35 0 64 9q4 59 24 99q4 8 4 28q-9 35 -9 91q0 19 1 40q16 43 44 71q8 32 4 55l-4 8v111l4 8l20 64 q4 63 35 103l4 12l4 27v32q0 48 12 83q20 36 40 4q4 -174 87 -301q8 -20 8 -36q-8 -42 -8 -81q0 -95 47 -176q-3 -23 -3 -45q0 -62 23 -114l4 -51l20 -16h64q45 -11 86 -11q20 0 40 3q24 -3 45 -3q31 0 54 7l24 24l4 23v103l4 28v48l4 23l28 52l4 28v135q4 27 20 51v56 q-9 35 -9 64q0 10 1 19v12q24 75 24 136v14q24 81 24 158q0 47 -9 92l8 20v12l12 20l8 15q4 28 16 44v12l4 43q4 36 4 66t-4 53l40 56l4 44l-4 142q19 56 39 87q0 28 8 48q-8 20 -24 32l-12 4h-95q-43 -8 -71 -8l-28 12h-79q-23 -35 -23 -70q0 -13 3 -26z" />
<glyph unicode="X" horiz-adv-x="1209" d="M258 1791q-29 0 -54 -8l-12 -4q-30 2 -56 2t-46 -2q-45 -25 -82 -29q-11 -39 -11 -75q0 -58 28 -109q-2 -14 -2 -28q0 -62 47 -115l4 -29l4 -24l8 -13l12 -24l41 -82l8 -8l17 -25l36 -45l4 -8l17 -20q8 -37 24 -62q21 -175 119 -302q-21 -25 -33 -45l-8 -29 q-8 -45 -8 -77l-4 -17l-13 -8q-16 -33 -16 -61q-41 -62 -45 -119q-16 -41 -33 -65q0 -25 -8 -45l-12 -12l-8 -5q-17 -20 -29 -28q-20 -115 -94 -184l-20 -57l20 -25h90q29 0 74 -4q16 12 32 12q19 -1 36 -1q34 0 58 5q21 33 45 49l9 49l8 9q20 53 57 86l53 184q19 17 40 17 q24 0 50 -22q16 -28 12 -57q13 -20 29 -41q4 -20 12 -32q33 -25 53 -62q9 -82 49 -139q5 -32 17 -53q22 -4 42 -4q42 0 80 16q40 -11 69 -11q46 0 66 28q4 23 4 43t-4 38l-40 54l-5 8q-24 69 -65 118v21l-12 41l-13 20v41q-4 29 -20 45q-12 78 -33 127q-32 41 -41 77 q-57 51 -57 122v9q25 45 49 70l4 20l4 17l21 36l20 37q0 12 4 17q17 24 25 61l12 8l12 41q21 29 29 53l8 8q41 29 62 53l4 9q16 45 45 73l4 21v16q12 65 12 102q16 21 33 33q28 49 37 90q28 20 45 37q9 39 9 74q0 25 -5 48l-17 17q-16 24 -32 41q-10 1 -20 1q-43 0 -79 -14 q-20 2 -37 2t-32 -2h-12l-25 4l-33 9h-135l-8 -9q-20 -36 -49 -65l-8 -57v-13l-8 -8v-16l-4 -29l-4 -24q-8 -37 -8 -66q-28 -37 -28 -79q0 -13 3 -27q-38 -59 -38 -120q0 -36 13 -72q-24 -33 -57 -41q-49 33 -57 82l-4 20l-4 131q-21 25 -25 49l-4 16l-4 21l-4 16l-8 45 q0 12 -4 17v16l-8 12q0 17 -5 41q-12 33 -12 61l-12 13q-12 24 -29 41q-16 36 -41 65h-81z" />
<glyph unicode="Y" horiz-adv-x="1227" d="M116 1797h-25q-46 -25 -83 -29q-11 -40 -11 -77q0 -58 28 -109q-2 -14 -2 -28q0 -62 47 -116l4 -29l4 -25l9 -12l12 -25l41 -83l9 -8l16 -25l37 -45l5 -9l16 -20q8 -37 25 -62q21 -178 120 -306q-21 -25 -33 -45q-18 -52 -18 -99q0 -8 1 -17q-25 -25 -29 -50 q-4 -78 -49 -136q-9 -45 -33 -74q0 -29 -9 -50l-12 -12l-8 -4q-17 -21 -29 -29q-21 -120 -99 -190l-17 -58l21 -21h91q29 0 74 -4q16 12 33 12q18 -1 34 -1q35 0 61 6q17 28 37 41l33 91l9 16l45 50l4 25l8 12l4 25l29 99q0 12 5 16q16 21 37 29l70 108q8 74 37 120 q21 24 41 37q21 37 21 66l4 8l25 33q17 58 54 87q4 29 12 50q4 12 8 16q21 25 25 50l4 8q21 37 29 66l9 8l41 91q16 13 25 21q29 25 49 49q17 42 41 67q5 24 9 28v17q12 66 12 103q17 21 33 33l25 58q17 25 21 41q29 21 41 46q5 36 5 64q0 15 -1 27q-25 49 -54 74 q-11 1 -21 1q-41 0 -78 -13q-21 2 -38 2t-32 -2h-12l-25 4l-33 8h-137l-8 -8q-20 -37 -49 -66l-9 -58v-12l-8 -9v-16l-4 -29l-4 -25q-8 -37 -8 -66q-28 -37 -28 -78q0 -14 3 -29q-39 -59 -39 -121q0 -37 14 -74q-25 -33 -58 -41q-41 29 -54 66l-8 41l-4 120l-21 37 q0 13 -4 25.5t-8 16.5l-4 33l-8 45q0 13 -5 17v16l-8 13q0 16 -4 41q-12 33 -12 62l-9 4l-24 41l-13 25q-20 8 -33 17h-33q-25 4 -62 4l-49 12l-9 -4l-74 4z" />
<glyph unicode="Z" horiz-adv-x="840" d="M28 1691l-5 -22v-185q-27 -73 -27 -138q0 -57 21 -108q-1 -13 -1 -25q0 -51 17 -95h235l28 -28l-11 -120v-16q-34 -81 -34 -153q0 -11 1 -22l-33 -38v-16q0 -50 -5 -88l-22 -44q-27 -163 -104 -278l-11 -49v-22q0 -44 11 -71v-115l6 -16l5 -109q44 -28 87 -28 q71 0 121 28q16 0 21 5h82l38 6q55 0 99 16q49 -16 87 -22q27 22 44 44v71q22 71 22 131l-11 11l-28 33l-131 5q-20 -1 -38 -1q-58 0 -104 12l17 27q11 44 33 77l16 54l11 11q16 22 16 44l22 27q11 44 38 77q11 54 39 98q0 33 5 55q22 27 27 43q6 60 33 99v43q33 55 38 104 l17 16q27 88 76 142v22l11 60l-5 22l16 44q0 60 11 98v224q-70 44 -143 44h-15q-49 30 -97 30t-95 -30h-71l-109 32h-229z" />
<glyph unicode="a" horiz-adv-x="793" d="M466 1691h216l42 -48q3 -30 3 -58q0 -81 -24 -148q6 -42 5.5 -78.5t-5.5 -68.5l11 -21l16 -117q2 -23 2 -43q0 -45 -8 -78v-37l6 -10l5 -116q21 -27 32 -53l-6 -16v-148l-5 -37l-11 -10v-16q-10 -63 -10 -106q26 -52 32 -89q-27 -42 -32 -79l26 -64l-5 -15l11 -285 q-16 -11 -22 -21h-42q-31 -6 -53 -6q-39 -23 -79 -23q-13 0 -26 2q-34 60 -34 120q0 14 2 28q-10 16 -21 53l-5 31l-5 106q-43 10 -74 37h-132l-26 -27l5 -47l-5 -48q-26 -52 -26 -102q0 -20 4 -40l-31 -26l-11 -74q-54 -19 -104 -19q-33 0 -65 8l-5 32v654q38 56 38 117 q0 8 -1 15q-23 79 -23 155.5t23 150.5q-6 30 -6 58q0 70 38 127q-6 31 -6 52l-31 64l5 37q16 26 5 52l16 21q5 21 11 58l-6 80q2 20 2 38q0 33 -7 56q16 11 21 22h211q21 -22 42 -27l69 32zM343 1194q1 -9 1 -18q0 -37 -17 -68q-11 -37 -11 -69q-5 -101 -5 -138l-5 -11 q-22 -75 -27 -123q31 -30 82 -30q28 0 62 9l5 21l-5 27l-6 266q-21 27 -21 54l-5 10q4 25 4 48q0 36 -10 69l-26 6z" />
<glyph unicode="b" horiz-adv-x="963" d="M587 1793h-198q-31 -6 -58 -6t-51 6h-36q-51 -9 -96 -9t-84 9q-37 -12 -61 -36q-3 -27 -3 -53q0 -78 27 -145l6 -18q-12 -49 -12 -91l19 -84l-13 -36l-6 -24v-42q19 -49 19 -95q0 -29 -7 -56l13 -48l6 -72q-12 -48 -12 -90l12 -67q-1 -17 -1 -33q0 -64 19 -117 q-1 -17 -1 -34q0 -83 25 -159l-12 -66l6 -12l30 -96q-6 -42 -18 -66v-18l12 -30q18 -43 24 -73q-11 -36 -11 -70q0 -22 5 -44q12 -12 42 -18l78 24h60q42 0 73 12q24 3 46.5 3t43.5 -3h54q82 31 160 31q13 0 26 -1l13 12q42 42 60 72l6 49l48 144l-6 66v42q0 24 -6 67 q12 60 12 108q-60 78 -60 168q24 30 48 48q18 55 48 91v126q46 129 46 248q0 176 -100 330q-18 90 -84 138l-37 6l-78 18h-12zM566 1173q-17 -37 -17 -71q0 -28 11 -55q-30 -30 -42 -60q-34 -16 -58 -16q-56 0 -56 88q-9 35 -9 65q0 96 87 150q78 -30 84 -101zM542 479 q2 -16 2 -30q0 -103 -116 -108q-67 4 -67 69q0 35 19 87q-1 10 -1 19q0 89 103 94q72 -26 72 -81q0 -22 -12 -50z" />
<glyph unicode="c" horiz-adv-x="746" d="M25 1600q-5 -35 -25 -65l5 -201l5 -15l-10 -40l5 -421l20 -65q0 -25 5 -41v-35q0 -65 25 -115l5 -35v-291q96 -196 271 -276h201l35 5l40 15q50 5 85 20q35 65 40 121l-20 35q5 38 5 71.5t-5 63.5l-25 20h-165q-20 -25 -45 -40q-27 7 -52 7q-12 0 -24 -2q-30 30 -40 60 l-25 35l-40 71q-10 40 -35 70v55q-2 28 -2 55q0 106 32 191q-3 34 -3 67q0 198 103 339q81 0 141 30q90 0 150 30l5 25l-5 146l5 55q13 40 13 80q0 21 -3 41l5 30l-25 70q-40 0 -65 25l-20 5l-256 5q-216 -30 -311 -201z" />
<glyph unicode="d" horiz-adv-x="845" d="M-5 1806l5 -56v-15q26 -51 31 -96v-102l5 -20v-162l5 -31v-40l15 -102l-5 -35q-2 -20 -2 -39q0 -27 4.5 -50t4.5 -45q0 -15 -2 -29l5 -40v-462q0 -40 5 -71v-15q7 -37 7 -65q0 -14 -2 -26v-122l5 -35q-2 -17 -2 -33q0 -32 7 -59l26 -10l71 26h319q51 40 96 55l41 61l5 46 l25 51l5 71q33 89 33 173q0 20 -2 40l30 91q5 66 25 106l11 117l5 25l5 36v71q16 49 16 87q0 10 -1 19v432q-30 55 -30 111l-21 25q-50 36 -86 87q-46 5 -71 30h-46q-30 0 -55 10h-41q-40 15 -76 21q-57 -33 -114 -33l-28 2q-73 33 -140 33q-16 0 -32 -2l-36 10 q-20 -21 -20 -41zM466 1230q54 -68 58 -147l-4 -54l-5 -14l-5 -74q-7 -49 -7 -87q0 -19 2 -35l-10 -20q-15 -39 -20 -64v-78l-4 -15q-20 -54 -25 -132l-5 -54l-10 -34l-9 -79v-29q-5 -59 -5 -98q-40 -35 -79 -44q-24 34 -29 73l5 20l5 39l4 34q-1 17 -1 31q0 33 6 57v422 l15 54v88l5 10l5 34l5 54q-10 64 -25 108q5 24 20 34h113z" />
<glyph unicode="e" horiz-adv-x="855" d="M596 1710h-199q-31 -6 -58 -6t-51 6h-36q-51 -9 -96.5 -9t-84.5 9q-36 -12 -60 -36q-3 -27 -3 -53q0 -79 27 -146l6 -18q-12 -48 -12 -91l18 -84l-12 -36l-6 -24v-43q19 -49 19 -95q0 -28 -7 -55l12 -49l6 -72q-12 -48 -12 -91l12 -66q-1 -17 -1 -33q0 -64 19 -118 q-1 -17 -1 -34q0 -83 25 -159l-12 -66l6 -12l30 -97q-6 -42 -18 -66v-18l12 -30q18 -43 24 -73q-11 -36 -11 -70q0 -22 5 -44l43 -18l78 24h66l133 18q32 -8 62 -8q15 0 29 2q70 33 137 33q19 0 38 -3q36 18 60 42q11 43 11 82q0 50 -17 93q0 30 3 57.5t-15 51.5h-36 q-51 -11 -95 -11q-30 0 -56 5q-67 -25 -91 -25q-66 25 -96 73q6 102 60 169q54 12 97 30q126 12 217 78v18q-13 55 -13 99q0 15 1 28q6 23 6 42q0 70 -84 70q-31 0 -73 -9q-61 21 -115 21q-21 0 -42 -3q-44 79 -44 158q0 17 2 35q24 72 72 108q36 6 61 6l48 -6 q108 31 181 37l12 18v36l6 48l6 42l-6 67l6 139l-60 108q-55 24 -97 30h-12z" />
<glyph unicode="f" horiz-adv-x="820" d="M591 1798h-199q-30 -6 -57 -6t-51 6h-37q-51 -9 -96 -9t-85 9q-36 -12 -60 -36q-3 -27 -3 -53q0 -79 27 -146l6 -18q-12 -49 -12 -91l18 -84l-12 -37l-6 -24v-42q19 -49 19 -96q0 -28 -7 -55l12 -48l6 -72q-12 -49 -12 -91l12 -66q-1 -17 -1 -33q0 -65 19 -118 q-1 -17 -1 -33q0 -85 26 -160l-13 -67l7 -12l30 -96q-6 -42 -18 -67v-18l12 -30q18 -42 24 -72q-11 -37 -11 -71q0 -22 5 -44l42 -18l54 18l24 6q91 0 151 12l12 61q-6 48 -30 84v103q6 42 18 72q-11 45 -11 88q0 75 35 141l18 18q55 12 97 31q127 12 217 78v42 q-12 48 -12 92t12 83q-18 24 -36 36l-121 -6q-60 21 -117 21q-23 0 -46 -3q-44 79 -44 159q0 17 2 35q24 72 73 108q36 6 60 6l48 -6q109 30 181 36q24 81 24 156q0 38 -6 74q4 27 4 52q0 120 -94 195l-24 6l-49 6z" />
<glyph unicode="g" horiz-adv-x="791" d="M277 1800l-56 -30l-30 -5q-25 -25 -40 -35q-55 -21 -91 -61q-5 -40 -35 -65q-5 -35 -25 -55v-111q-1 -19 -1 -36q0 -52 11 -90l-10 -40v-337l5 -20q0 -60 25 -166v-85l25 -56v-15l5 -25v-291q96 -197 272 -277h85q20 -1 39 -1q77 0 137 16q81 55 121 136v70l5 20v86l5 15 l-5 256l5 56l5 15l5 55l5 40v71l-5 20l5 15q0 30 -10 55q10 25 5 45l-20 15h-251q-36 -27 -74 -27q-11 0 -22 2l-10 -15q2 -20 2.5 -37.5t-2.5 -32.5v-55l5 -16l5 -160q65 -10 111 -41l5 -15v-50q5 -25 0 -55q2 -17 2 -33q0 -31 -7 -58q-20 -25 -41 -40l-55 5 q-70 75 -95 166l-26 30v151q0 25 5 40q6 76 26 126q-3 33 -3 65q0 189 103 327q81 0 141 30q90 0 151 30l5 25l-5 146l5 56q13 40 13 80q0 20 -3 40l5 30l-25 71q-40 0 -66 25l-20 5l-256 5q-30 -10 -60 -5z" />
<glyph unicode="h" horiz-adv-x="947" d="M13 1756v-16q0 -43 -13 -75l3 -9l28 -60v-69q10 -28 13 -50v-13q-6 -28 -13 -44v-57q-3 -22 -9 -34v-82l6 -28q29 -41 32 -82l-3 -34l3 -63q-7 -37 -7 -71q0 -95 51 -174l-3 -10q-13 -40 -32 -66q-1 -15 -1 -29q0 -82 29 -147l-6 -22q-3 -20 -3 -39q0 -46 16 -86 q0 -13 3 -32q9 -25 12 -47l-3 -6l-6 -19l3 -22q0 -19 -9 -31l-3 -19q0 -28 -4 -50l7 -16l6 -94q17 -51 84 -51q33 0 79 13v9q10 48 10 79q6 22 15 35q0 40 -6 65l3 35v75l-3 19l-19 44v51q7 18 16 28q6 38 22 63l-3 18l3 26q4 27 4 47q0 10 -1 19q13 9 25 12h54l22 10h12 l22 3q35 -3 57 0q31 -13 47 -38l6 -19v-22q6 -28 6 -50v-13q5 -28 5 -51q0 -9 -1 -18l9 -19q6 -22 19 -40l3 -13q3 -16 13 -31l15 -48q-3 -15 0 -28q-10 -48 -10 -90q0 -35 7 -67l3 -34q-3 -29 -9 -51q16 -15 28 -22q25 0 41 3h9q36 -8 65 -8q14 0 27 2q9 54 31 85 q5 33 5 63q0 44 -11 81l3 51l6 19l19 37q0 32 -16 51l-6 15v29l3 9v41l-6 22l-3 22v37q-10 16 -10 32v38q7 34 19 56v94l-12 70q0 28 12 50v66l3 6l7 22l-4 110l4 6q9 29 12 76q0 18 6 40v29l4 9l-4 104l10 38q-1 23 -1 43t1 35q34 60 37 116v10q-9 19 -9 34q-6 32 -16 51 l-3 50q-52 32 -105 32q-30 0 -61 -10q-33 14 -62 14q-56 0 -95 -52l6 -53q-5 -32 -5 -63q0 -86 39 -157q0 -25 -15 -44q-7 -32 -22 -57q0 -31 9 -53q0 -13 3 -35l-3 -28q-6 -9 -12 -31l-4 -22l-3 -19l3 -38q19 -43 19 -83q0 -28 -9 -55q-16 -13 -28 -19l-22 9q-38 0 -66 13 h-10q-50 -25 -94 -25l-3 9v88q9 29 6 51v9q6 19 6 38q17 50 17.5 97.5t-17.5 93.5v41q19 44 19 82q18 42 18 82q0 27 -8 53v34q19 41 19 79q0 18 -4 35l-22 18l-9 4q-47 0 -85 12q-31 0 -53 -6l-13 -3q-25 0 -66 3q-30 10 -58 10q-7 0 -14 -1q-31 -31 -53 -47z" />
<glyph unicode="i" horiz-adv-x="492" d="M-5 1739q0 -75 27 -133l5 -520q26 -64 32 -117l-6 -21v-32l6 -16l5 -282l5 -32v-26q8 -25 8 -49q0 -10 -2 -20l10 -159q-2 -27 -2.5 -49.5t2.5 -41.5q-1 -19 -1 -37q0 -57 12 -106h159q14 -2 28 -2q27 0 52 7l5 11v180l32 117v53q-2 40 -2 73t2 60v197q0 15 5 21v90 l-5 21v43q2 39 2 72.5t-2 60.5q5 37 16 63v16l5 27l11 37v133q26 69 32 116q-36 88 -36 173q0 28 4 56l-11 42q-44 -13 -84 -13q-59 0 -107 29l-90 6z" />
<glyph unicode="j" horiz-adv-x="690" d="M232 1752l5 -89q20 -30 20 -64v-356q-1 -11 -1 -22q0 -75 31 -127v-34l5 -20l-5 -25v-34l5 -15v-213l4 -14v-30q5 -20 10 -64v-79l5 -40l5 -54v-64q-11 -34 -11 -65q0 -10 1 -20q-34 -9 -59 5l-10 20l-5 94q-60 28 -110 28q-66 0 -117 -48q-11 -48 -11 -93q0 -74 31 -139 v-74q109 -125 251 -125q32 0 65 6q119 5 183 84q18 56 18 106q0 19 -3 38l14 24v149l15 59q16 49 16 97q0 28 -6 56l5 35v237l5 20v24l-5 65v54q3 37 3 68t-3 56l15 49v15l15 64v139q20 29 29 59v15q-9 44 -24 74v15l-5 24l-5 149l-15 5q-38 -12 -73 -12q-51 0 -95 26l-84 5 z" />
<glyph unicode="k" horiz-adv-x="1100" d="M109 1792q-24 -8 -40 -20q-41 -4 -69 -25v-60l8 -16v-13l20 -68l4 -550q29 -49 33 -93q0 -33 -4 -57l4 -283l8 -25v-28l4 -8q-1 -13 -1 -26q0 -25 5 -47v-44q-1 -12 -1 -24q0 -46 13 -81v-85q0 -33 -8 -61q8 -20 8 -36q-1 -21 -1 -41q0 -58 9 -101l243 4l8 16l-4 12v166 q32 98 32 192q0 34 -4 67l4 45q29 -21 45 -41q44 -12 44 -57l8 -8l21 -24q121 -101 141 -234q41 -49 57 -102q58 -22 112 -22q36 0 70 10q32 -13 62 -13q8 0 15 1q28 36 28 75v10l-8 16q-45 49 -61 97q-20 21 -28 33q-28 77 -81 125l-4 8l-8 24q-20 41 -20 73 q-33 81 -77 126v52l-8 4q-4 25 -17 41q-44 60 -52 121l4 20q61 35 61 94v7l40 37l8 12l32 69q17 24 21 44q4 12 8 16q12 25 16 45q12 57 28 93l8 4q29 61 73 97q-1 10 -1 20q0 29 9 53l4 12q33 24 49 44l12 9q16 56 61 93q12 40 12 77q0 23 -4 44l-8 4l-41 53h-64 q-43 -14 -81 -14q-8 0 -17 1q-24 0 -44 9l-8 4q-29 1 -54 1q-74 0 -108 -9q-20 -37 -44 -57l-13 -57l-4 -28v-24l-8 -4q0 -17 -4 -41l-4 -32l-4 -29l-20 -24q-8 -32 -4 -60q-8 -57 -37 -93q1 -15 1 -29q0 -46 -13 -81q-28 -56 -68 -73q-13 13 -17 29l17 73v157q32 45 32 97 q0 9 -4 29q-20 32 -20 64l-8 21l-4 178l-17 4l-28 -12h-117l-41 28h-40q-18 9 -34 9q-6 0 -11 -1z" />
<glyph unicode="l" horiz-adv-x="742" d="M10 1794l6 -59l6 -29l6 -29v-59l5 -12l12 -64v-112q6 -23 6 -58q3 -26 3 -50t-3 -44q21 -68 21 -130q0 -23 -3 -46l6 -18q23 -35 29 -65l-29 -93l23 -77l-6 -35v-53l6 -41v-123q6 -35 18 -59v-158l6 -18l5 -29v-94l6 -65l6 -17q-3 -35 -3 -65t3 -53q29 -23 59 -29l76 6 l24 6h135q47 6 76 17l123 -6q47 6 76 24v182q0 47 -17 82q18 33 18 65q0 9 -1 17l-35 24q-13 -1 -26 -1q-124 0 -214 54l-6 23l6 12q-6 23 -12 58q-12 30 -12 53l-12 35q6 42 6 78.5t-6 68.5q6 18 6 47q8 43 8 79q0 17 -2 33q21 57 21 105v12q-1 18 -1 34q0 33 4 60v117 l-6 12l6 211q7 42 7 74q0 18 -2 32v18q16 55 16 104q0 25 -4 48l-59 18h-358z" />
<glyph unicode="m" horiz-adv-x="1393" d="M1199 1835l-28 -12l-61 -25h-146q-30 2 -55 2t-46 -2q-40 -12 -65 -24q-24 -53 -24 -97q12 -41 16 -69l-20 -73v-166q-4 -44 -4 -73q-16 -28 -24 -72q0 -17 -4 -41l-4 -24l-4 -29l-4 -28v-89q-19 -58 -19 -110q0 -16 2 -32q-12 -40 -12 -73q-16 -28 -48 -36l-25 28l-4 77 l-4 45l-4 12l-8 89l-4 28l-4 29v89q-20 36 -28 60v21l4 12l4 20l4 20l8 114l-4 20q-20 36 -24 69l-4 24q-3 18 -2.5 34.5t2.5 30.5l-5 97q-1 11 -1 21q0 45 14 84l-13 37l-24 8l-24 -4l-28 -12l-29 -4l-28 -5l-45 -4q-40 10 -71 10q-9 0 -18 -1q-70 18 -136 18t-127 -18 l-16 -29v-24l12 -32l4 -77l-4 -45l4 -36q0 -61 8 -85v-98q16 -48 21 -85v-44l-5 -32v-37l-4 -8v-77l9 -44l4 -29v-56q14 -44 14 -76v-7q-2 -35 -14 -59q-4 -45 -4 -69v-247l4 -32l4 -29l4 -20v-89l4 -16v-37l4 -28v-85q20 -36 24 -61v-12q-2 -22 -2 -41t2 -36l8 -4l28 -4 q34 -3 64 -3q44 0 78 7q16 16 24 33v20l9 65v194q0 12 -4 16v12l4 33v85l-17 60q0 25 8 41q17 44 17 81v12l8 49v117q-1 15 -1 29q0 42 9 72q40 -28 57 -65l20 -64l4 -106l20 -36q8 -24 8 -45l4 -12q8 -24 8 -44v-12q8 -49 8 -81l4 -8l17 -49l4 -77l24 -65q0 -12 4 -16 l4 -36q8 -49 8 -81l4 -8l4 -33q11 -37 11 -72q0 -17 -3 -33l17 -12h32l12 4q53 16 93 20h12q33 0 53 4q12 -1 23 -1q34 0 58 9q21 45 21 86q0 37 -17 72q0 53 -12 89q12 45 32 77l4 12q4 57 16 93v45l29 154q0 24 4 60l20 69q0 49 8 81q16 20 28 29q13 -9 17 -21l4 -137 q0 -49 16 -89l4 -29l4 -44l8 -93q0 -37 -4 -97l4 -9v-24l4 -12l4 -36q0 -65 4 -89v-41q4 -49 4 -88t-4 -70l12 -24l45 -4l194 4l8 8l-16 57l4 24q16 44 20 81v198q-4 16 -8 41q10 52 10 98q0 56 -14 104l4 24l8 146q0 33 -4 53v125q0 33 4 57v57l-4 12l4 158l9 32v12l8 49 l4 12l-4 121q34 86 34 166q0 33 -6 65q16 40 16 75q0 25 -8 47h-4l-28 12h-17l-8 4h-24l-24 8l-37 4z" />
<glyph unicode="n" horiz-adv-x="1020" d="M842 1784q-37 5 -72 5q-71 0 -135 -21l6 -69l5 -31q5 -59 21 -96q0 -79 11 -111q-1 -15 -1 -30q0 -67 22 -123v-524q-13 -49 -23 -49q-11 0 -20 64l-26 75q-5 63 -16 105q-21 48 -21 90q-5 186 -64 307v154q-27 64 -27 120q0 9 1 18l-37 10h-90l-58 -5l-191 5l-11 -5 q-68 -27 -116 -32q26 -47 32 -85v-270q26 -52 32 -100q-3 -28 -3 -54q0 -90 29 -163l-26 -48v-280q26 -43 31 -80q-5 -26 -16 -42v-32q6 -21 11 -69v-122l5 -58v-143q0 -47 -5 -84l11 -11h121q12 -3 23 -3q61 0 61 87q0 22 -4 48q-16 27 -21 48q10 42 26 74l5 508l22 16 l10 -10q0 -37 11 -96q27 -54 27 -109q0 -9 -1 -18q0 -16 5 -21q23 -45 23 -85q0 -8 -1 -15q26 -38 37 -64l5 -58l16 -37v-32l5 -11q0 -68 16 -111l16 -10l58 -6l106 6q13 2 26 2q28 0 53 -8q17 -1 34 -1q69 0 125 17l16 43v116q5 21 5 53q8 37 8 71.5t-8 66.5l-10 42l5 37 v69l5 16l11 169l-5 16l5 16v185l5 37l6 318l5 58l11 58v16l10 58v191q-26 32 -63 48l-16 5z" />
<glyph unicode="o" horiz-adv-x="845" d="M308 1717q-25 3 -49 3q-138 0 -234 -83q1 -12 1 -24q0 -92 -41 -157v-34l-5 -17q4 -27 4 -51q0 -37 -10 -68v-51q15 -63 15 -119q0 -30 -4 -57v-34l6 -17v-147l28 -63l6 -221q11 -28 23 -45q0 -119 11 -159v-74l-6 -17l6 -119q45 -39 62 -90l12 -17q90 -29 141 -91 l29 -17l249 6q29 28 57 45l79 108q23 68 51 107v23q-4 27 -4 52q0 38 10 73v17l-17 91q15 48 15 94q0 24 -4 47q24 42 24 81q0 8 -1 16q-6 68 -23 119q6 34 23 56l6 40q-4 20 -4 39q0 46 21 86v39q-12 46 -12 80v17q2 19 2 37q0 52 -13 93v40q6 38 6 74q0 71 -23 136 q0 45 -11 73l-34 29q-29 22 -46 45h-79q-76 38 -156 38q-27 0 -54 -4q-34 -23 -57 -28zM437 1189q17 -46 23 -85v-97q0 -45 22 -119l-11 -79q10 -45 10 -87q0 -53 -16 -100q19 -53 19 -102q0 -41 -13 -80q11 -51 11 -90q-28 -46 -56 -68q-40 5 -57 34q-6 79 -28 130 q-2 20 -2 38q0 33 7 59q-5 34 -5 56v40q-8 45 -8 80q0 18 2 33l-23 51v136q-2 14 -2 28q0 30 8 57q0 40 -6 68q-5 23 -5.5 44t5.5 41q29 35 63 46q39 -6 62 -34z" />
<glyph unicode="p" horiz-adv-x="976" d="M588 1807h-198q-30 -6 -57 -6t-51 6h-36q-51 -9 -96 -9t-84 9q-36 -12 -60 -36q-3 -27 -3 -53q0 -78 27 -145q-4 -34 -4 -65q0 -63 16 -115l-18 -78q6 -66 24 -114l-12 -66l6 -30q12 -54 12 -96q-14 -41 -14 -74q0 -11 2 -22l6 -18l6 -36v-60q16 -68 16 -123 q0 -27 -4 -51q24 -64 24 -123q0 -29 -6 -57l6 -12l30 -96q-9 -37 -9 -72q0 -61 27 -114q-10 -29 -10 -56q0 -40 22 -76q38 -14 71 -14q40 0 73 20q10 -1 19 -1q50 0 50 46q0 12 -3 27l12 162l12 24l-6 18q-12 30 -12 72l6 30l12 186q48 36 96 36q59 44 122 44q14 0 28 -2 l72 30l24 24l42 78q18 24 60 54q12 60 48 96v126q46 129 46 247q0 175 -100 329q-18 90 -84 138l-36 6l-78 18h-12zM546 1261q15 -54 15 -101q0 -125 -105 -199q-67 17 -67 74q0 25 13 58q-3 21 -3 40q0 108 87 164q36 -12 60 -36z" />
<glyph unicode="q" horiz-adv-x="885" d="M334 1778q-25 3 -49 3q-138 0 -234 -83v-34l-6 -11q0 -51 -5 -91q-23 -34 -29 -56l-11 -216l11 -22q3 -28 3 -52.5t-3 -44.5v-79l6 -17v-170l28 -22v-80l6 -39v-102q0 -34 17 -57q6 -34 6 -57q0 -45 5 -107q8 -23 8 -45q0 -12 -2 -23l-6 -17l6 -131q45 -39 62 -90l12 -17 q90 -29 141 -91l29 -17l249 6l11 11l23 34q57 -60 116 -60q46 0 93 37q14 22 14 46q0 65 -98 147l-6 34q33 87 33 169q0 47 -11 92q16 49 16 94q0 22 -4 42q23 60 23 116t-23 110q30 88 30 163q0 21 -2 41q17 37 17 73.5t-17 73.5q4 31 4 59q0 43 -10 77v46q6 38 6 73 q0 70 -23 131l-5 62l-6 11l-34 29q-28 22 -45 45q-10 -1 -20 -1q-67 0 -122 35h-147q-34 -23 -57 -28zM431 1251q33 -83 33 -180q0 -36 -5 -75q17 -50 17 -97q0 -28 -6 -56q10 -41 10 -78q0 -46 -15 -86v-17q22 -46 22 -85q-96 -6 -130 -85q6 -85 45 -142l-17 -17 q-45 51 -62 102q-2 21 -2 39q0 36 8 63q-5 40 -5 75q0 49 10 89v91q-5 34 -22 57v215l5 22q-10 47 -10 88q0 28 5 54q28 34 62 45q34 -5 57 -22z" />
<glyph unicode="r" horiz-adv-x="958" d="M585 1764h-197q-30 -6 -57 -6t-51 6h-35q-51 -9 -96 -9t-83 9q-36 -12 -60 -36q-3 -35 -3 -65t3 -54q12 -60 30 -96q-8 -38 -8 -74q0 -48 14 -93q-14 -46 -14 -90q0 -52 20 -101q-6 -26 -6 -50t6 -45q12 -30 24 -48q8 -24 8 -45q0 -10 -2 -20l-6 -48q-19 -58 -19 -103 q0 -11 1 -22v-42q6 -18 12 -48l6 -42q-3 -21 -3 -42q0 -59 26 -113l-11 -71q6 -42 23 -66v-24q0 -36 6 -60q-6 -34 -6 -65q0 -64 24 -120q-3 -21 -3 -40t3 -37q60 -27 117 -27t110 27v101l6 18q-1 14 -1 28q0 55 19 97l-6 18q-12 30 -12 54v36l6 48v95l24 24q30 -6 48 -18 q0 -48 8.5 -80.5t20.5 -50.5v-18q36 -78 36 -137l24 -24v-54l6 -36q24 -47 24 -89q48 -12 71 -24h18l42 6h131l6 48l-6 35l-47 60l-6 42q-6 42 -18 65q0 66 -30 108v167q-36 66 -48 119l18 18l30 24q36 90 101 131v36q52 66 52 142q0 21 -4 43q45 127 45 245q0 181 -105 340 q-5 42 -17 71l-18 18l-54 42q-36 0 -60 12l-53 6zM531 1253q5 -56 5 -102q0 -197 -92 -197q-17 0 -38 7q0 35 -12 59q3 45 3 82.5t-3 66.5q30 78 89 114q30 -6 48 -30z" />
<glyph unicode="s" horiz-adv-x="850" d="M80 1693l-20 -20l-12 -15q-13 -13 -18 -25q-12 -15 -17 -25l-8 -18l-5 -27q0 -20 3 -35q-2 -14 -2 -28q0 -36 12 -65q-5 -22 -13 -40l3 -185q0 -25 5 -43v-7q-1 -14 -1 -26q0 -34 6 -59v-20q0 -8 2 -10v-25l8 -55q0 -28 -8 -48v-23l8 -27v-8q0 -15 2 -25l3 -15 q0 -60 5 -80q12 -25 15 -45l12 -30l8 -27q7 -18 10 -30l12 -15l53 -48l10 -8l32 -25q33 -2 58 8l5 -5l35 -25h7q15 0 25 -3l33 -12l17 -3q13 -7 23 -10q28 -15 48 -20q20 -20 30 -35l2 -27q12 -37 12 -72q0 -38 -14 -73v-23q-25 -25 -45 -35l-10 -2l-28 -3l-23 -12 q-15 0 -27 -8h-10q-37 0 -65 -20l-13 -3l-80 -2q-10 -10 -12 -20v-30q-3 -10 0 -28l2 -17l3 -18q0 -37 5 -62v-15l2 -20l3 -40l7 -13l5 -2l15 -3l5 3q43 0 60 5q20 -4 39 -4q33 0 61 11q10 -1 19 -1q37 0 67 16h32l5 -2h48l7 2q55 0 98 15l42 3q25 22 48 27q32 30 42 68l5 5 l8 20l12 27l3 5l5 116q5 22 3 42q-1 23 -1 39q0 29 3 41q3 15 3 35l-3 20l-2 48q5 29 5 50v12l-3 15l-8 15l-2 18l-13 32l-5 23l-17 18l-13 12q-15 13 -27 20l-5 5l-10 5l-18 13l-5 2l-20 15h-7l-15 3l-23 7q-35 5 -60 18q-110 17 -180 92q-38 25 -58 58l-2 7q0 18 -3 20v35 l-2 18v45q32 108 130 120q43 22 84 22q23 0 46 -7h30q43 8 68 33l15 5q27 -15 50 -3l2 5l3 15q2 23 7 38l5 67l-2 13v88q-3 15 0 27l2 58q-10 20 -17 30q2 27 15 47q5 18 2 33v42q0 20 3 33v27l2 5l3 58q-5 32 -20 53q-10 2 -25 10q-25 7 -45 5q-30 10 -58 7l-20 8l-17 10 l-10 2q-20 5 -30 5q-15 10 -33 13h-32l-23 7l-22 3q-18 0 -20 2h-128q-135 -35 -198 -145z" />
<glyph unicode="t" horiz-adv-x="803" d="M41 1780l-8 -41v-13l-17 -45l-8 -73q2 -22 2 -48t-2 -55q4 -37 4 -70q0 -55 -12 -101q0 -41 16 -70l37 -4q23 4 44 4q42 0 75 -16v-26q0 -118 33 -199l4 -25v-41l-4 -24q0 -33 -5 -58v-122l5 -33l8 -33l-4 -24v-103q8 -24 8 -45l-4 -28l4 -29l4 -118l4 -17l8 -147l4 -12 v-25q0 -33 4 -53q-3 -15 -3 -28q0 -21 7 -38l21 -20q19 -1 38 -1q104 0 187 38q7 29 7 57q0 19 -3 37l8 33q8 24 8 49l-20 37l-4 16q4 29 12 45l4 65l4 21v151q0 33 -4 57v156q26 49 26 95q0 27 -9 52l4 29l24 61l4 29q0 24 4 41q-2 59 -2 97.5t2 57.5q17 12 29 17 q19 -2 36 -2q123 0 148 108l4 98q-8 33 0 61q-14 67 -14 129t14 117v41q-16 12 -45 12l-28 -4q-25 0 -41 -4l-94 -4q-17 -1 -32 -1q-46 0 -83 9l-20 4q-41 -12 -72 -14t-35 2q-24 0 -41 -4q-32 0 -82 4l-12 4h-37q-49 0 -81 8q-21 -12 -29 -24z" />
<glyph unicode="u" horiz-adv-x="894" d="M29 1630v-29q-4 -50 -4 -83l4 -45v-116q0 -37 -4 -66q-25 -42 -25 -79l12 -50l42 -86q-17 -38 -21 -67v-62q-4 -24 0 -53v-25q0 -37 -4 -66l4 -13l8 -231l-8 -66v-21q8 -33 12 -75v-78q9 -25 5 -50l4 -20q4 -34 16 -54v-33l4 -13q0 -41 9 -70q37 -116 140 -157 q70 -65 152 -65q54 0 113 28q207 20 273 239q0 17 4 46q0 37 8 66v99l4 46q9 29 9 54q8 37 8 66v16q0 42 -8 71l8 215l8 24l4 67l21 49l4 33l4 33l4 29l5 29v29q8 46 8 75l-4 16v25l-4 12v75q0 16 -5 41q-5 31 -5 68q0 19 1 40q8 59 8 104q0 32 -4 57q-68 18 -131 18 q-56 0 -108 -14l-71 4l-24 -20l-5 -17l5 -29v-74q7 -47 7 -89q0 -57 -12 -106q0 -20 6.5 -34.5t10.5 -43.5q-12 -62 -12 -104v-82l4 -13v-37q9 -37 9 -68q0 -10 -1 -19v-132l-12 -70v-71l4 -37l-4 -21q0 -41 -5 -70q-4 -19 -4 -36t4 -34v-33l-12 -104q-12 -91 -91 -91 q-37 33 -45 79l-5 25q0 20 -4 33l-4 25v45q-4 17 -4 46q5 30 5 66q0 18 -1 37l-33 70v13q5 33 5 71q0 19 -1 40q0 71 8 100v128l-4 16l4 83q9 50 9 83l-4 20v58l-5 33l-4 29q6 27 6 50q0 13 -2 25l5 12l8 58v13l4 45v12l12 83l-8 33q-53 17 -102 17q-24 0 -47 -4 q-66 29 -128 29q-21 -9 -33 -25z" />
<glyph unicode="v" horiz-adv-x="973" d="M44 1800q-28 -4 -44 -16v-64q16 -24 16 -48q0 -32 4 -56v-124l12 -64q61 -107 61 -221q0 -14 -1 -27q40 -95 40 -187v-17q44 -60 60 -104l4 -44v-76q-4 -26 -4 -49t4 -43l16 -56q28 -40 36 -80v-44q4 -16 8 -44l4 -28v-72q36 -76 44 -104v-32l4 -12q-1 -10 -1 -20 q0 -28 9 -52l4 -12q-1 -12 -1 -23q0 -34 9 -61l28 -16l72 -4l12 4h68q18 4 34 4t30 -4q48 12 76 28l8 12q8 56 28 96v64q-12 32 -4 56v12q36 44 40 92l-8 156q26 77 26 141q0 16 -2 31l8 8l4 16l4 32q0 60 8 100q36 36 44 80v44q0 12 4 16v28q-5 40 -5 71q0 16 1 29 q49 107 49 209q0 32 -5 63q36 44 44 84l-4 164l16 28q8 32 24 56l8 56q-24 20 -52 20q-48 -18 -92 -18t-84 18q-20 1 -38 1q-35 0 -62 -5q-7 -26 -7 -50q0 -16 3 -30q-9 -33 -9 -63q0 -36 13 -69q-20 -48 -20 -88v-88q0 -60 -4 -100q4 -12 0 -24q-16 -28 -24 -72l-4 -40 l-4 -20l-4 -28l-4 -40v-84q-18 -57 -18 -107q0 -17 2 -33q-12 -40 -12 -72q-12 -24 -32 -36q-44 16 -44 60v24l-4 44l-4 32q0 24 -4 40l-4 28q0 24 -4 40v28q-5 32 -5 57q0 12 1 23v12q-24 44 -28 84l8 28l4 20l4 24v36l4 24l-4 44q-8 28 -20 48l-4 20l-8 72l4 20v48l-4 8 v112l12 24q0 44 -36 56q-83 -25 -163 -25q-72 0 -141 21z" />
<glyph unicode="w" horiz-adv-x="1530" d="M1189 1700l-12 -27v-36q12 -40 16 -67l-16 -44l-4 -36v-107q-2 -29 -2 -54t2 -45l-23 -55v-16q-8 -36 -8 -63l-4 -20l-4 -16v-28l-4 -8q1 -18 1 -35q0 -32 -5 -56v-12q-32 -71 -32 -139v-15l-24 -28l-4 12q-12 23 -12 39q-31 64 -39 115l-4 12l4 44v91l-4 20 q-24 31 -28 95l8 12l4 146l-4 8q-28 76 -32 135l4 16v28q-4 47 -4 85.5t4 68.5q-8 36 -32 48h-23q-35 -11 -67 -11q-16 0 -32 3q-21 -5 -40 -5q-27 0 -52 9h-11q-44 -12 -80 -12q-16 -20 -27 -28q-9 -39 -9 -74q0 -40 12 -76v-12q-15 -36 -19 -64v-138q-2 -24 -2 -44t2 -36 q-12 -31 -24 -51q-8 -91 -36 -155v-67l12 -36q-12 -24 -12 -43v-72l-8 -32q0 -27 -4 -47q-12 -24 -31 -36q-32 8 -44 60l-12 146l-8 52v24l-4 16q1 20 1 37q0 35 -5 62l-20 35l-4 28l4 32q8 24 8 43q21 61 21 118q0 51 -17 100v12q0 32 4 56v103l-4 12l-4 23l-4 28l-4 24 q-19 28 -43 36q-40 -8 -64 -20q-47 0 -79 -8l-28 4l-31 4h-40q-44 16 -79 16q-16 -12 -24 -28q0 -48 16 -87q0 -32 4 -56l4 -150l4 -28l4 -24q60 -103 60 -212q0 -13 -1 -26l8 -23q12 -16 12 -32l12 -28l4 -32l4 -79q12 -40 35 -63v-24l16 -60v-11q4 -32 12 -48 q-4 -83 -4 -111l16 -44q4 -23 16 -39l4 -218l4 -24l16 -36v-12q0 -23 8 -59q4 -16 4 -28t8 -39q0 -32 8 -52q0 -44 11 -79q40 -20 68 -28l59 -4l87 4l28 4q12 -1 23 -1q35 0 64 9q4 59 24 99q4 8 4 28q-9 35 -9 91q0 19 1 40q16 43 44 71q8 32 4 55l-4 8v111l4 8l20 64 q4 63 35 103l4 12l4 27v32q0 48 12 83q20 36 40 4q4 -174 87 -301q8 -20 8 -36q-8 -42 -8 -81q0 -95 47 -176q-3 -23 -3 -45q0 -62 23 -114l4 -51l20 -16h64q45 -11 86 -11q20 0 40 3q24 -3 45 -3q31 0 54 7l24 24l4 23v103l4 28v48l4 23l28 52l4 28v135q4 27 20 51v56 q-9 35 -9 64q0 10 1 19v12q24 75 24 136v14q24 81 24 158q0 47 -9 92l8 20v12l12 20l8 15q4 28 16 44v12l4 43q4 36 4 66t-4 53l40 56l4 44l-4 142q19 56 39 87q0 28 8 48q-8 20 -24 32l-12 4h-95q-43 -8 -71 -8l-28 12h-79q-23 -35 -23 -70q0 -13 3 -26z" />
<glyph unicode="x" horiz-adv-x="1203" d="M258 1791q-29 0 -54 -8l-12 -4q-30 2 -56 2t-46 -2q-45 -25 -82 -29q-11 -39 -11 -75q0 -58 28 -109q-2 -14 -2 -28q0 -62 47 -115l4 -29l4 -24l8 -13l12 -24l41 -82l8 -8l17 -25l36 -45l4 -8l17 -20q8 -37 24 -62q21 -175 119 -302q-21 -25 -33 -45l-8 -29 q-8 -45 -8 -77l-4 -17l-13 -8q-16 -33 -16 -61q-41 -62 -45 -119q-16 -41 -33 -65q0 -25 -8 -45l-12 -12l-8 -5q-17 -20 -29 -28q-20 -115 -94 -184l-20 -57l20 -25h90q29 0 74 -4q16 12 32 12q19 -1 36 -1q34 0 58 5q21 33 45 49l9 49l8 9q20 53 57 86l53 184q19 17 40 17 q24 0 50 -22q16 -28 12 -57q13 -20 29 -41q4 -20 12 -32q33 -25 53 -62q9 -82 49 -139q5 -32 17 -53q22 -4 42 -4q42 0 80 16q40 -11 69 -11q46 0 66 28q4 23 4 43t-4 38l-40 54l-5 8q-24 69 -65 118v21l-12 41l-13 20v41q-4 29 -20 45q-12 78 -33 127q-32 41 -41 77 q-57 51 -57 122v9q25 45 49 70l4 20l4 17l21 36l20 37q0 12 4 17q17 24 25 61l12 8l12 41q21 29 29 53l8 8q41 29 62 53l4 9q16 45 45 73l4 21v16q12 65 12 102q16 21 33 33q28 49 37 90q28 20 45 37q9 39 9 74q0 25 -5 48l-17 17q-16 24 -32 41q-10 1 -20 1q-43 0 -79 -14 q-20 2 -37 2t-32 -2h-12l-25 4l-33 9h-135l-8 -9q-20 -36 -49 -65l-8 -57v-13l-8 -8v-16l-4 -29l-4 -24q-8 -37 -8 -66q-28 -37 -28 -79q0 -13 3 -27q-38 -59 -38 -120q0 -36 13 -72q-24 -33 -57 -41q-49 33 -57 82l-4 20l-4 131q-21 25 -25 49l-4 16l-4 21l-4 16l-8 45 q0 12 -4 17v16l-8 12q0 17 -5 41q-12 33 -12 61l-12 13q-12 24 -29 41q-16 36 -41 65h-81z" />
<glyph unicode="y" horiz-adv-x="1227" d="M116 1797h-25q-46 -25 -83 -29q-11 -40 -11 -77q0 -58 28 -109q-2 -14 -2 -28q0 -62 47 -116l4 -29l4 -25l9 -12l12 -25l41 -83l9 -8l16 -25l37 -45l5 -9l16 -20q8 -37 25 -62q21 -178 120 -306q-21 -25 -33 -45q-18 -52 -18 -99q0 -8 1 -17q-25 -25 -29 -50 q-4 -78 -49 -136q-9 -45 -33 -74q0 -29 -9 -50l-12 -12l-8 -4q-17 -21 -29 -29q-21 -120 -99 -190l-17 -58l21 -21h91q29 0 74 -4q16 12 33 12q18 -1 34 -1q35 0 61 6q17 28 37 41l33 91l9 16l45 50l4 25l8 12l4 25l29 99q0 12 5 16q16 21 37 29l70 108q8 74 37 120 q21 24 41 37q21 37 21 66l4 8l25 33q17 58 54 87q4 29 12 50q4 12 8 16q21 25 25 50l4 8q21 37 29 66l9 8l41 91q16 13 25 21q29 25 49 49q17 42 41 67q5 24 9 28v17q12 66 12 103q17 21 33 33l25 58q17 25 21 41q29 21 41 46q5 36 5 64q0 15 -1 27q-25 49 -54 74 q-11 1 -21 1q-41 0 -78 -13q-21 2 -38 2t-32 -2h-12l-25 4l-33 8h-137l-8 -8q-20 -37 -49 -66l-9 -58v-12l-8 -9v-16l-4 -29l-4 -25q-8 -37 -8 -66q-28 -37 -28 -78q0 -14 3 -29q-39 -59 -39 -121q0 -37 14 -74q-25 -33 -58 -41q-41 29 -54 66l-8 41l-4 120l-21 37 q0 13 -4 25.5t-8 16.5l-4 33l-8 45q0 13 -5 17v16l-8 13q0 16 -4 41q-12 33 -12 62l-9 4l-24 41l-13 25q-20 8 -33 17h-33q-25 4 -62 4l-49 12l-9 -4l-74 4z" />
<glyph unicode="z" horiz-adv-x="853" d="M28 1691l-5 -22v-185q-27 -73 -27 -138q0 -57 21 -108q-1 -13 -1 -25q0 -51 17 -95h235l28 -28l-11 -120v-16q-34 -81 -34 -153q0 -11 1 -22l-33 -38v-16q0 -50 -5 -88l-22 -44q-27 -163 -104 -278l-11 -49v-22q0 -44 11 -71v-115l6 -16l5 -109q44 -28 87 -28 q71 0 121 28q16 0 21 5h82l38 6q55 0 99 16q49 -16 87 -22q27 22 44 44v71q22 71 22 131l-11 11l-28 33l-131 5q-20 -1 -38 -1q-58 0 -104 12l17 27q11 44 33 77l16 54l11 11q16 22 16 44l22 27q11 44 38 77q11 54 39 98q0 33 5 55q22 27 27 43q6 60 33 99v43q33 55 38 104 l17 16q27 88 76 142v22l11 60l-5 22l16 44q0 60 11 98v224q-70 44 -143 44h-15q-49 30 -97 30t-95 -30h-71l-109 32h-229z" />
<glyph unicode="&#xaa;" horiz-adv-x="793" d="M466 1691h216l42 -48q3 -30 3 -58q0 -81 -24 -148q6 -42 5.5 -78.5t-5.5 -68.5l11 -21l16 -117q2 -23 2 -43q0 -45 -8 -78v-37l6 -10l5 -116q21 -27 32 -53l-6 -16v-148l-5 -37l-11 -10v-16q-10 -63 -10 -106q26 -52 32 -89q-27 -42 -32 -79l26 -64l-5 -15l11 -285 q-16 -11 -22 -21h-42q-31 -6 -53 -6q-39 -23 -79 -23q-13 0 -26 2q-34 60 -34 120q0 14 2 28q-10 16 -21 53l-5 31l-5 106q-43 10 -74 37h-132l-26 -27l5 -47l-5 -48q-26 -52 -26 -102q0 -20 4 -40l-31 -26l-11 -74q-54 -19 -104 -19q-33 0 -65 8l-5 32v654q38 56 38 117 q0 8 -1 15q-23 79 -23 155.5t23 150.5q-6 30 -6 58q0 70 38 127q-6 31 -6 52l-31 64l5 37q16 26 5 52l16 21q5 21 11 58l-6 80q2 20 2 38q0 33 -7 56q16 11 21 22h211q21 -22 42 -27l69 32zM343 1194q1 -9 1 -18q0 -37 -17 -68q-11 -37 -11 -69q-5 -101 -5 -138l-5 -11 q-22 -75 -27 -123q31 -30 82 -30q28 0 62 9l5 21l-5 27l-6 266q-21 27 -21 54l-5 10q4 25 4 48q0 36 -10 69l-26 6z" />
<glyph unicode="&#xad;" d="M49 900l-4 -16v-136q-36 -100 -4 -180q-4 -48 12 -88q44 4 72 16h44q100 -36 188 4h76q88 -28 160 8l4 12q0 24 8 44l-4 20q12 28 12 52v12l8 40v132l-4 44q-24 8 -40 20q-64 0 -112 28q-64 -4 -112 -24h-16l-36 4l-8 4q-60 20 -112 16h-116z" />
<glyph unicode="&#xba;" horiz-adv-x="845" d="M308 1717q-25 3 -49 3q-138 0 -234 -83q1 -12 1 -24q0 -92 -41 -157v-34l-5 -17q4 -27 4 -51q0 -37 -10 -68v-51q15 -63 15 -119q0 -30 -4 -57v-34l6 -17v-147l28 -63l6 -221q11 -28 23 -45q0 -119 11 -159v-74l-6 -17l6 -119q45 -39 62 -90l12 -17q90 -29 141 -91 l29 -17l249 6q29 28 57 45l79 108q23 68 51 107v23q-4 27 -4 52q0 38 10 73v17l-17 91q15 48 15 94q0 24 -4 47q24 42 24 81q0 8 -1 16q-6 68 -23 119q6 34 23 56l6 40q-4 20 -4 39q0 46 21 86v39q-12 46 -12 80v17q2 19 2 37q0 52 -13 93v40q6 38 6 74q0 71 -23 136 q0 45 -11 73l-34 29q-29 22 -46 45h-79q-76 38 -156 38q-27 0 -54 -4q-34 -23 -57 -28zM437 1189q17 -46 23 -85v-97q0 -45 22 -119l-11 -79q10 -45 10 -87q0 -53 -16 -100q19 -53 19 -102q0 -41 -13 -80q11 -51 11 -90q-28 -46 -56 -68q-40 5 -57 34q-6 79 -28 130 q-2 20 -2 38q0 33 7 59q-5 34 -5 56v40q-8 45 -8 80q0 18 2 33l-23 51v136q-2 14 -2 28q0 30 8 57q0 40 -6 68q-5 23 -5.5 44t5.5 41q29 35 63 46q39 -6 62 -34z" />
<glyph unicode="&#x152;" horiz-adv-x="1628" d="M1425 1710h-199q-31 -6 -58 -6t-51 6h-36q-51 -9 -96.5 -9t-84.5 9q-36 -12 -60 -36q-3 -27 -3 -53q0 -79 27 -146l6 -18q-12 -48 -12 -91l18 -84l-12 -36l-6 -24v-43q19 -49 19 -95q0 -28 -7 -55l12 -49l6 -72q-12 -48 -12 -91l12 -66q-1 -17 -1 -33q0 -64 19 -118 q-1 -17 -1 -34q0 -83 25 -159l-12 -66l6 -12l30 -97q-6 -42 -18 -66v-18l12 -30q18 -43 24 -73q-11 -36 -11 -70q0 -22 5 -44l43 -18l78 24h66l133 18q32 -8 62 -8q15 0 29 2q70 33 137 33q19 0 38 -3q36 18 60 42q11 43 11 82q0 50 -17 93q0 30 3 57.5t-15 51.5h-36 q-51 -11 -95 -11q-30 0 -56 5q-67 -25 -91 -25q-66 25 -96 73q6 102 60 169q54 12 97 30q126 12 217 78v18q-13 55 -13 99q0 15 1 28q6 23 6 42q0 70 -84 70q-31 0 -73 -9q-61 21 -115 21q-21 0 -42 -3q-44 79 -44 158q0 17 2 35q24 72 72 108q36 6 61 6l48 -6 q108 31 181 37l12 18v36l6 48l6 42l-6 67l6 139l-60 108q-55 24 -97 30h-12zM308 1717q-25 3 -49 3q-138 0 -234 -83q1 -12 1 -24q0 -92 -41 -157v-34l-5 -17q4 -27 4 -51q0 -37 -10 -68v-51q15 -63 15 -119q0 -30 -4 -57v-34l6 -17v-147l28 -63l6 -221q11 -28 23 -45 q0 -119 11 -159v-74l-6 -17l6 -119q45 -39 62 -90l12 -17q90 -29 141 -91l29 -17l249 6q29 28 57 45l79 108q23 68 51 107v23q-4 27 -4 52q0 38 10 73v17l-17 91q15 48 15 94q0 24 -4 47q24 42 24 81q0 8 -1 16q-6 68 -23 119q6 34 23 56l6 40q-4 20 -4 39q0 46 21 86v39 q-12 46 -12 80v17q2 19 2 37q0 52 -13 93v40q6 38 6 74q0 71 -23 136q0 45 -11 73l-34 29q-29 22 -46 45h-79q-76 38 -156 38q-27 0 -54 -4q-34 -23 -57 -28zM437 1189q17 -46 23 -85v-97q0 -45 22 -119l-11 -79q10 -45 10 -87q0 -53 -16 -100q19 -53 19 -102q0 -41 -13 -80 q11 -51 11 -90q-28 -46 -56 -68q-40 5 -57 34q-6 79 -28 130q-2 20 -2 38q0 33 7 59q-5 34 -5 56v40q-8 45 -8 80q0 18 2 33l-23 51v136q-2 14 -2 28q0 30 8 57q0 40 -6 68q-5 23 -5.5 44t5.5 41q29 35 63 46q39 -6 62 -34z" />
<glyph unicode="&#x153;" horiz-adv-x="1700" d="M1441 1710h-199q-31 -6 -58 -6t-51 6h-36q-51 -9 -96.5 -9t-84.5 9q-36 -12 -60 -36q-3 -27 -3 -53q0 -79 27 -146l6 -18q-12 -48 -12 -91l18 -84l-12 -36l-6 -24v-43q19 -49 19 -95q0 -28 -7 -55l12 -49l6 -72q-12 -48 -12 -91l12 -66q-1 -17 -1 -33q0 -64 19 -118 q-1 -17 -1 -34q0 -83 25 -159l-12 -66l6 -12l30 -97q-6 -42 -18 -66v-18l12 -30q18 -43 24 -73q-11 -36 -11 -70q0 -22 5 -44l43 -18l78 24h66l133 18q32 -8 62 -8q15 0 29 2q70 33 137 33q19 0 38 -3q36 18 60 42q11 43 11 82q0 50 -17 93q0 30 3 57.5t-15 51.5h-36 q-51 -11 -95 -11q-30 0 -56 5q-67 -25 -91 -25q-66 25 -96 73q6 102 60 169q54 12 97 30q126 12 217 78v18q-13 55 -13 99q0 15 1 28q6 23 6 42q0 70 -84 70q-31 0 -73 -9q-61 21 -115 21q-21 0 -42 -3q-44 79 -44 158q0 17 2 35q24 72 72 108q36 6 61 6l48 -6 q108 31 181 37l12 18v36l6 48l6 42l-6 67l6 139l-60 108q-55 24 -97 30h-12zM308 1717q-25 3 -49 3q-138 0 -234 -83q1 -12 1 -24q0 -92 -41 -157v-34l-5 -17q4 -27 4 -51q0 -37 -10 -68v-51q15 -63 15 -119q0 -30 -4 -57v-34l6 -17v-147l28 -63l6 -221q11 -28 23 -45 q0 -119 11 -159v-74l-6 -17l6 -119q45 -39 62 -90l12 -17q90 -29 141 -91l29 -17l249 6q29 28 57 45l79 108q23 68 51 107v23q-4 27 -4 52q0 38 10 73v17l-17 91q15 48 15 94q0 24 -4 47q24 42 24 81q0 8 -1 16q-6 68 -23 119q6 34 23 56l6 40q-4 20 -4 39q0 46 21 86v39 q-12 46 -12 80v17q2 19 2 37q0 52 -13 93v40q6 38 6 74q0 71 -23 136q0 45 -11 73l-34 29q-29 22 -46 45h-79q-76 38 -156 38q-27 0 -54 -4q-34 -23 -57 -28zM437 1189q17 -46 23 -85v-97q0 -45 22 -119l-11 -79q10 -45 10 -87q0 -53 -16 -100q19 -53 19 -102q0 -41 -13 -80 q11 -51 11 -90q-28 -46 -56 -68q-40 5 -57 34q-6 79 -28 130q-2 20 -2 38q0 33 7 59q-5 34 -5 56v40q-8 45 -8 80q0 18 2 33l-23 51v136q-2 14 -2 28q0 30 8 57q0 40 -6 68q-5 23 -5.5 44t5.5 41q29 35 63 46q39 -6 62 -34z" />
<glyph unicode="&#x2000;" horiz-adv-x="923" />
<glyph unicode="&#x2001;" horiz-adv-x="1847" />
<glyph unicode="&#x2002;" horiz-adv-x="923" />
<glyph unicode="&#x2003;" horiz-adv-x="1847" />
<glyph unicode="&#x2004;" horiz-adv-x="615" />
<glyph unicode="&#x2005;" horiz-adv-x="461" />
<glyph unicode="&#x2006;" horiz-adv-x="307" />
<glyph unicode="&#x2007;" horiz-adv-x="307" />
<glyph unicode="&#x2008;" horiz-adv-x="230" />
<glyph unicode="&#x2009;" horiz-adv-x="369" />
<glyph unicode="&#x200a;" horiz-adv-x="102" />
<glyph unicode="&#x2010;" d="M49 900l-4 -16v-136q-36 -100 -4 -180q-4 -48 12 -88q44 4 72 16h44q100 -36 188 4h76q88 -28 160 8l4 12q0 24 8 44l-4 20q12 28 12 52v12l8 40v132l-4 44q-24 8 -40 20q-64 0 -112 28q-64 -4 -112 -24h-16l-36 4l-8 4q-60 20 -112 16h-116z" />
<glyph unicode="&#x2011;" d="M49 900l-4 -16v-136q-36 -100 -4 -180q-4 -48 12 -88q44 4 72 16h44q100 -36 188 4h76q88 -28 160 8l4 12q0 24 8 44l-4 20q12 28 12 52v12l8 40v132l-4 44q-24 8 -40 20q-64 0 -112 28q-64 -4 -112 -24h-16l-36 4l-8 4q-60 20 -112 16h-116z" />
<glyph unicode="&#x2012;" d="M49 900l-4 -16v-136q-36 -100 -4 -180q-4 -48 12 -88q44 4 72 16h44q100 -36 188 4h76q88 -28 160 8l4 12q0 24 8 44l-4 20q12 28 12 52v12l8 40v132l-4 44q-24 8 -40 20q-64 0 -112 28q-64 -4 -112 -24h-16l-36 4l-8 4q-60 20 -112 16h-116z" />
<glyph unicode="&#x2013;" horiz-adv-x="1024" d="M204 512v204h616v-204h-616z" />
<glyph unicode="&#x2014;" horiz-adv-x="2048" d="M204 512v204h1640v-204h-1640z" />
<glyph unicode="&#x2018;" horiz-adv-x="210" d="M1 1654q26 -360 200 7q51 154 -89 153q-134 5 -111 -160z" />
<glyph unicode="&#x2019;" horiz-adv-x="210" d="M1 1654q26 -360 200 7q51 154 -89 153q-134 5 -111 -160z" />
<glyph unicode="&#x201c;" horiz-adv-x="490" d="M242 1615q88 -348 220 -32l-4 112q-56 64 -168 44q-68 -44 -48 -124zM0 1614q88 -348 220 -32l-4 112q-56 64 -168 44q-68 -44 -48 -124z" />
<glyph unicode="&#x201d;" horiz-adv-x="490" d="M242 1615q88 -348 220 -32l-4 112q-56 64 -168 44q-68 -44 -48 -124zM0 1614q88 -348 220 -32l-4 112q-56 64 -168 44q-68 -44 -48 -124z" />
<glyph unicode="&#x2026;" horiz-adv-x="1230" d="M871 202q-134 -108 -17 -211l102 -2q81 24 81 110t-91 106zM461 202q-134 -108 -17 -211l102 -2q81 24 81 110t-91 106zM51 202q-134 -108 -17 -211l102 -2q81 24 81 110t-91 106z" />
<glyph unicode="&#x202f;" horiz-adv-x="369" />
<glyph unicode="&#x205f;" horiz-adv-x="461" />
<glyph unicode="&#x2122;" horiz-adv-x="2199" d="M2009 1835l-28 -12l-61 -25h-146q-30 2 -55 2t-46 -2q-40 -12 -65 -24q-24 -53 -24 -97q12 -41 16 -69l-20 -73v-166q-4 -44 -4 -73q-16 -28 -24 -72q0 -17 -4 -41l-4 -24l-4 -29l-4 -28v-89q-19 -58 -19 -110q0 -16 2 -32q-12 -40 -12 -73q-16 -28 -48 -36l-25 28l-4 77 l-4 45l-4 12l-8 89l-4 28l-4 29v89q-20 36 -28 60v21l4 12l4 20l4 20l8 114l-4 20q-20 36 -24 69l-4 24q-3 18 -2.5 34.5t2.5 30.5l-5 97q-1 11 -1 21q0 45 14 84l-13 37l-24 8l-24 -4l-28 -12l-29 -4l-28 -5l-45 -4q-40 10 -71 10q-9 0 -18 -1q-70 18 -136 18t-127 -18 l-16 -29v-24l12 -32l4 -77l-4 -45l4 -36q0 -61 8 -85v-98q16 -48 21 -85v-44l-5 -32v-37l-4 -8v-77l9 -44l4 -29v-56q14 -44 14 -76v-7q-2 -35 -14 -59q-4 -45 -4 -69v-247l4 -32l4 -29l4 -20v-89l4 -16v-37l4 -28v-85q20 -36 24 -61v-12q-2 -22 -2 -41t2 -36l8 -4l28 -4 q34 -3 64 -3q44 0 78 7q16 16 24 33v20l9 65v194q0 12 -4 16v12l4 33v85l-17 60q0 25 8 41q17 44 17 81v12l8 49v117q-1 15 -1 29q0 42 9 72q40 -28 57 -65l20 -64l4 -106l20 -36q8 -24 8 -45l4 -12q8 -24 8 -44v-12q8 -49 8 -81l4 -8l17 -49l4 -77l24 -65q0 -12 4 -16 l4 -36q8 -49 8 -81l4 -8l4 -33q11 -37 11 -72q0 -17 -3 -33l17 -12h32l12 4q53 16 93 20h12q33 0 53 4q12 -1 23 -1q34 0 58 9q21 45 21 86q0 37 -17 72q0 53 -12 89q12 45 32 77l4 12q4 57 16 93v45l29 154q0 24 4 60l20 69q0 49 8 81q16 20 28 29q13 -9 17 -21l4 -137 q0 -49 16 -89l4 -29l4 -44l8 -93q0 -37 -4 -97l4 -9v-24l4 -12l4 -36q0 -65 4 -89v-41q4 -49 4 -88t-4 -70l12 -24l45 -4l194 4l8 8l-16 57l4 24q16 44 20 81v198q-4 16 -8 41q10 52 10 98q0 56 -14 104l4 24l8 146q0 33 -4 53v125q0 33 4 57v57l-4 12l4 158l9 32v12l8 49 l4 12l-4 121q34 86 34 166q0 33 -6 65q16 40 16 75q0 25 -8 47h-4l-28 12h-17l-8 4h-24l-24 8l-37 4zM41 1780l-8 -41v-13l-17 -45l-8 -73q2 -22 2 -48t-2 -55q4 -37 4 -70q0 -55 -12 -101q0 -41 16 -70l37 -4q23 4 44 4q42 0 75 -16v-26q0 -118 33 -199l4 -25v-41l-4 -24 q0 -33 -5 -58v-122l5 -33l8 -33l-4 -24v-103q8 -24 8 -45l-4 -28l4 -29l4 -118l4 -17l8 -147l4 -12v-25q0 -33 4 -53q-3 -15 -3 -28q0 -21 7 -38l21 -20q19 -1 38 -1q104 0 187 38q7 29 7 57q0 19 -3 37l8 33q8 24 8 49l-20 37l-4 16q4 29 12 45l4 65l4 21v151q0 33 -4 57 v156q26 49 26 95q0 27 -9 52l4 29l24 61l4 29q0 24 4 41q-2 59 -2 97.5t2 57.5q17 12 29 17q19 -2 36 -2q123 0 148 108l4 98q-8 33 0 61q-14 67 -14 129t14 117v41q-16 12 -45 12l-28 -4q-25 0 -41 -4l-94 -4q-17 -1 -32 -1q-46 0 -83 9l-20 4q-41 -12 -72 -14t-35 2 q-24 0 -41 -4q-32 0 -82 4l-12 4h-37q-49 0 -81 8q-21 -12 -29 -24z" />
<glyph unicode="&#xe000;" horiz-adv-x="1800" d="M0 1800h1800v-1800h-1800v1800z" />
<glyph unicode="&#xfb01;" horiz-adv-x="1312" d="M815 1739q0 -75 27 -133l5 -520q26 -64 32 -117l-6 -21v-32l6 -16l5 -282l5 -32v-26q8 -25 8 -49q0 -10 -2 -20l10 -159q-2 -27 -2.5 -49.5t2.5 -41.5q-1 -19 -1 -37q0 -57 12 -106h159q14 -2 28 -2q27 0 52 7l5 11v180l32 117v53q-2 40 -2 73t2 60v197q0 15 5 21v90 l-5 21v43q2 39 2 72.5t-2 60.5q5 37 16 63v16l5 27l11 37v133q26 69 32 116q-36 88 -36 173q0 28 4 56l-11 42q-44 -13 -84 -13q-59 0 -107 29l-90 6zM591 1798h-199q-30 -6 -57 -6t-51 6h-37q-51 -9 -96 -9t-85 9q-36 -12 -60 -36q-3 -27 -3 -53q0 -79 27 -146l6 -18 q-12 -49 -12 -91l18 -84l-12 -37l-6 -24v-42q19 -49 19 -96q0 -28 -7 -55l12 -48l6 -72q-12 -49 -12 -91l12 -66q-1 -17 -1 -33q0 -65 19 -118q-1 -17 -1 -33q0 -85 26 -160l-13 -67l7 -12l30 -96q-6 -42 -18 -67v-18l12 -30q18 -42 24 -72q-11 -37 -11 -71q0 -22 5 -44 l42 -18l54 18l24 6q91 0 151 12l12 61q-6 48 -30 84v103q6 42 18 72q-11 45 -11 88q0 75 35 141l18 18q55 12 97 31q127 12 217 78v42q-12 48 -12 92t12 83q-18 24 -36 36l-121 -6q-60 21 -117 21q-23 0 -46 -3q-44 79 -44 159q0 17 2 35q24 72 73 108q36 6 60 6l48 -6 q109 30 181 36q24 81 24 156q0 38 -6 74q4 27 4 52q0 120 -94 195l-24 6l-49 6z" />
<glyph unicode="&#xfb02;" horiz-adv-x="1562" d="M830 1794l6 -59l6 -29l6 -29v-59l5 -12l12 -64v-112q6 -23 6 -58q3 -26 3 -50t-3 -44q21 -68 21 -130q0 -23 -3 -46l6 -18q23 -35 29 -65l-29 -93l23 -77l-6 -35v-53l6 -41v-123q6 -35 18 -59v-158l6 -18l5 -29v-94l6 -65l6 -17q-3 -35 -3 -65t3 -53q29 -23 59 -29l76 6 l24 6h135q47 6 76 17l123 -6q47 6 76 24v182q0 47 -17 82q18 33 18 65q0 9 -1 17l-35 24q-13 -1 -26 -1q-124 0 -214 54l-6 23l6 12q-6 23 -12 58q-12 30 -12 53l-12 35q6 42 6 78.5t-6 68.5q6 18 6 47q8 43 8 79q0 17 -2 33q21 57 21 105v12q-1 18 -1 34q0 33 4 60v117 l-6 12l6 211q7 42 7 74q0 18 -2 32v18q16 55 16 104q0 25 -4 48l-59 18h-358zM591 1798h-199q-30 -6 -57 -6t-51 6h-37q-51 -9 -96 -9t-85 9q-36 -12 -60 -36q-3 -27 -3 -53q0 -79 27 -146l6 -18q-12 -49 -12 -91l18 -84l-12 -37l-6 -24v-42q19 -49 19 -96q0 -28 -7 -55 l12 -48l6 -72q-12 -49 -12 -91l12 -66q-1 -17 -1 -33q0 -65 19 -118q-1 -17 -1 -33q0 -85 26 -160l-13 -67l7 -12l30 -96q-6 -42 -18 -67v-18l12 -30q18 -42 24 -72q-11 -37 -11 -71q0 -22 5 -44l42 -18l54 18l24 6q91 0 151 12l12 61q-6 48 -30 84v103q6 42 18 72 q-11 45 -11 88q0 75 35 141l18 18q55 12 97 31q127 12 217 78v42q-12 48 -12 92t12 83q-18 24 -36 36l-121 -6q-60 21 -117 21q-23 0 -46 -3q-44 79 -44 159q0 17 2 35q24 72 73 108q36 6 60 6l48 -6q109 30 181 36q24 81 24 156q0 38 -6 74q4 27 4 52q0 120 -94 195l-24 6 l-49 6z" />
<glyph unicode="&#xfb03;" horiz-adv-x="2132" d="M1635 1739q0 -75 27 -133l5 -520q26 -64 32 -117l-6 -21v-32l6 -16l5 -282l5 -32v-26q8 -25 8 -49q0 -10 -2 -20l10 -159q-2 -27 -2.5 -49.5t2.5 -41.5q-1 -19 -1 -37q0 -57 12 -106h159q14 -2 28 -2q27 0 52 7l5 11v180l32 117v53q-2 40 -2 73t2 60v197q0 15 5 21v90 l-5 21v43q2 39 2 72.5t-2 60.5q5 37 16 63v16l5 27l11 37v133q26 69 32 116q-36 88 -36 173q0 28 4 56l-11 42q-44 -13 -84 -13q-59 0 -107 29l-90 6zM1411 1798h-199q-30 -6 -57 -6t-51 6h-37q-51 -9 -96 -9t-85 9q-36 -12 -60 -36q-3 -27 -3 -53q0 -79 27 -146l6 -18 q-12 -49 -12 -91l18 -84l-12 -37l-6 -24v-42q19 -49 19 -96q0 -28 -7 -55l12 -48l6 -72q-12 -49 -12 -91l12 -66q-1 -17 -1 -33q0 -65 19 -118q-1 -17 -1 -33q0 -85 26 -160l-13 -67l7 -12l30 -96q-6 -42 -18 -67v-18l12 -30q18 -42 24 -72q-11 -37 -11 -71q0 -22 5 -44 l42 -18l54 18l24 6q91 0 151 12l12 61q-6 48 -30 84v103q6 42 18 72q-11 45 -11 88q0 75 35 141l18 18q55 12 97 31q127 12 217 78v42q-12 48 -12 92t12 83q-18 24 -36 36l-121 -6q-60 21 -117 21q-23 0 -46 -3q-44 79 -44 159q0 17 2 35q24 72 73 108q36 6 60 6l48 -6 q109 30 181 36q24 81 24 156q0 38 -6 74q4 27 4 52q0 120 -94 195l-24 6l-49 6zM591 1798h-199q-30 -6 -57 -6t-51 6h-37q-51 -9 -96 -9t-85 9q-36 -12 -60 -36q-3 -27 -3 -53q0 -79 27 -146l6 -18q-12 -49 -12 -91l18 -84l-12 -37l-6 -24v-42q19 -49 19 -96q0 -28 -7 -55 l12 -48l6 -72q-12 -49 -12 -91l12 -66q-1 -17 -1 -33q0 -65 19 -118q-1 -17 -1 -33q0 -85 26 -160l-13 -67l7 -12l30 -96q-6 -42 -18 -67v-18l12 -30q18 -42 24 -72q-11 -37 -11 -71q0 -22 5 -44l42 -18l54 18l24 6q91 0 151 12l12 61q-6 48 -30 84v103q6 42 18 72 q-11 45 -11 88q0 75 35 141l18 18q55 12 97 31q127 12 217 78v42q-12 48 -12 92t12 83q-18 24 -36 36l-121 -6q-60 21 -117 21q-23 0 -46 -3q-44 79 -44 159q0 17 2 35q24 72 73 108q36 6 60 6l48 -6q109 30 181 36q24 81 24 156q0 38 -6 74q4 27 4 52q0 120 -94 195l-24 6 l-49 6z" />
<glyph unicode="&#xfb04;" horiz-adv-x="2382" d="M1650 1794l6 -59l6 -29l6 -29v-59l5 -12l12 -64v-112q6 -23 6 -58q3 -26 3 -50t-3 -44q21 -68 21 -130q0 -23 -3 -46l6 -18q23 -35 29 -65l-29 -93l23 -77l-6 -35v-53l6 -41v-123q6 -35 18 -59v-158l6 -18l5 -29v-94l6 -65l6 -17q-3 -35 -3 -65t3 -53q29 -23 59 -29l76 6 l24 6h135q47 6 76 17l123 -6q47 6 76 24v182q0 47 -17 82q18 33 18 65q0 9 -1 17l-35 24q-13 -1 -26 -1q-124 0 -214 54l-6 23l6 12q-6 23 -12 58q-12 30 -12 53l-12 35q6 42 6 78.5t-6 68.5q6 18 6 47q8 43 8 79q0 17 -2 33q21 57 21 105v12q-1 18 -1 34q0 33 4 60v117 l-6 12l6 211q7 42 7 74q0 18 -2 32v18q16 55 16 104q0 25 -4 48l-59 18h-358zM1411 1798h-199q-30 -6 -57 -6t-51 6h-37q-51 -9 -96 -9t-85 9q-36 -12 -60 -36q-3 -27 -3 -53q0 -79 27 -146l6 -18q-12 -49 -12 -91l18 -84l-12 -37l-6 -24v-42q19 -49 19 -96q0 -28 -7 -55 l12 -48l6 -72q-12 -49 -12 -91l12 -66q-1 -17 -1 -33q0 -65 19 -118q-1 -17 -1 -33q0 -85 26 -160l-13 -67l7 -12l30 -96q-6 -42 -18 -67v-18l12 -30q18 -42 24 -72q-11 -37 -11 -71q0 -22 5 -44l42 -18l54 18l24 6q91 0 151 12l12 61q-6 48 -30 84v103q6 42 18 72 q-11 45 -11 88q0 75 35 141l18 18q55 12 97 31q127 12 217 78v42q-12 48 -12 92t12 83q-18 24 -36 36l-121 -6q-60 21 -117 21q-23 0 -46 -3q-44 79 -44 159q0 17 2 35q24 72 73 108q36 6 60 6l48 -6q109 30 181 36q24 81 24 156q0 38 -6 74q4 27 4 52q0 120 -94 195l-24 6 l-49 6zM591 1798h-199q-30 -6 -57 -6t-51 6h-37q-51 -9 -96 -9t-85 9q-36 -12 -60 -36q-3 -27 -3 -53q0 -79 27 -146l6 -18q-12 -49 -12 -91l18 -84l-12 -37l-6 -24v-42q19 -49 19 -96q0 -28 -7 -55l12 -48l6 -72q-12 -49 -12 -91l12 -66q-1 -17 -1 -33q0 -65 19 -118 q-1 -17 -1 -33q0 -85 26 -160l-13 -67l7 -12l30 -96q-6 -42 -18 -67v-18l12 -30q18 -42 24 -72q-11 -37 -11 -71q0 -22 5 -44l42 -18l54 18l24 6q91 0 151 12l12 61q-6 48 -30 84v103q6 42 18 72q-11 45 -11 88q0 75 35 141l18 18q55 12 97 31q127 12 217 78v42 q-12 48 -12 92t12 83q-18 24 -36 36l-121 -6q-60 21 -117 21q-23 0 -46 -3q-44 79 -44 159q0 17 2 35q24 72 73 108q36 6 60 6l48 -6q109 30 181 36q24 81 24 156q0 38 -6 74q4 27 4 52q0 120 -94 195l-24 6l-49 6z" />
</font>
</defs>
</svg>
